<?xml version="1.0" encoding="UTF-8" standalone="no"?>
<!-- Created with Inkscape (http://www.inkscape.org/) -->

<svg
   version="1.1"
   id="svg1"
   width="5200"
   height="3347.5466"
   viewBox="0 0 5200 3347.5466"
   sodipodi:docname="vecteezy_old-tree-stump-with-roots_.eps"
   xmlns:inkscape="http://www.inkscape.org/namespaces/inkscape"
   xmlns:sodipodi="http://sodipodi.sourceforge.net/DTD/sodipodi-0.dtd"
   xmlns="http://www.w3.org/2000/svg"
   xmlns:svg="http://www.w3.org/2000/svg">
  <defs
     id="defs1" />
  <sodipodi:namedview
     id="namedview1"
     pagecolor="#ffffff"
     bordercolor="#000000"
     borderopacity="0.25"
     inkscape:showpageshadow="2"
     inkscape:pageopacity="0.0"
     inkscape:pagecheckerboard="0"
     inkscape:deskcolor="#d1d1d1">
    <inkscape:page
       x="0"
       y="0"
       inkscape:label="1"
       id="page1"
       width="5200"
       height="3347.5466"
       margin="0"
       bleed="0" />
  </sodipodi:namedview>
  <g
     id="g1"
     inkscape:groupmode="layer"
     inkscape:label="1">
    <g
       id="group-R5">
      <path
         id="path2"
         d="M 18047.5,667.801 C 17425.3,1156 16792.9,1814.6 16603.8,2613.6 c -227.9,960.7 33.6,1149.1 102.5,2093.2 26.2,360.6 -127.2,726.3 -100.3,1176.5 29,487.1 136.8,892.6 -1.8,1152.5 -173.4,345.7 -992.1,1006.4 -1092.7,1841 -678,-756.1 -1121,-1135.8 -1863.4,-1805.1 -106.1,-901.3 106.2,-2086.1 191.1,-3252.7 34.9,-479.1 -198.3,-918.9 -242.4,-1422.8 -56.6,-648 134.6,-1179 -0.6,-1883.2 -771.5,318.699 -1061.9,1132 -1110.6,1747.5 -71.3,900 197.7,1511.5 -315.7,2247.3 -242.8,-254.6 -417.9,-331.8 -531.2,-649.4 -900.1,1441.4 523.6,2217.5 256.9,2802.5 -671.9,-91.5 -1156.8,54.5 -1719.4,-306.3 -466.07,-298.9 -955.5,-814.4 -1698.27,-1125 -47.76,626.8 193.15,1104.6 505.62,1500.2 -245.8,258.9 -616.93,243.5 -919.61,359 -389.52,148.6 -639.43,365.4 -1068.89,695.9 968.67,324.5 1442.94,38.2 2297.98,31.2 605.12,-5.1 1221.27,290.9 1610.67,291 983,479.9 1281.5,761.7 1613.1,1197.9 226.4,297.8 210.1,541.5 316.3,771.3 93.7,203 310.3,402.9 489.1,515 752.2,505 549.3,888.4 866.9,1827.9 -241.6,-101.9 -524.4,-179.3 -746.5,-352.6 -568.2,-443 -1139.3,-1563 -2011.9,-1382.9 -69.3,444.3 202.2,859.4 330.2,1228.2 -279.5,14.9 -471.5,-46.4 -595,-65.6 60,-690.6 -140.1,-1470 -351.4,-2083.3 C 10595.1,9125.5 10147.7,9089.2 9624.53,8912 9031.61,8711.3 8210.88,8498.8 7543.02,8324.5 6283.35,7995.7 5457.31,7775.8 5070.16,8084.8 4579.31,8036.4 3739.3,7462.1 3334.7,7544.6 c 212.91,978.1 1419.8,1096.3 1757.65,1327.7 -305.96,365.6 -1363.21,357.8 -2136.23,411.8 236.82,260.2 973.07,327.3 1233.14,376.4 51.75,382.7 -847.13,286.7 -1134.34,541.6 1008.3,387.1 1721.31,-126.7 2090.28,-309.3 372.15,-183.9 909.29,-452.6 1312.17,-440.4 201.62,6.1 408.66,219.9 609.41,354.2 343.18,229.6 807.35,201.4 1155.84,385.9 770.45,514.2 231.07,972.4 625.97,1432.3 -450.08,157.1 -1613.72,-236.4 -3123.83,253.7 -934.06,-197.3 -1123.85,-54.1 -1981.78,-231.5 -228.82,-47.3 -729.04,-332.9 -1088.84,-362.5 -518.28,-42.5 -934.01,52.8 -1463.52,219.7 -386.311,121.7 -680.565,245.4 -1088.698,627.8 515.933,123.9 1252.458,53.6 1577.398,110.2 647.43,21.4 1020.21,333.9 1601.12,567 384.74,154.4 979.4,261.7 1379.69,271.5 -255.76,284 -1265.64,181.5 -1559.17,572.6 -595.03,106.8 -892.33,-153.1 -1376.92,-315.4 -549.12,-184 -1106.81,-157.7 -1566.911,95.6 461.203,104.8 720.273,151.3 1275.451,306 355.81,99 602.13,399.1 924.04,494.9 -187.22,218.2 -628.37,341.8 -1424.182,677 C 515.684,15087 97.0859,15280.6 0,15663.1 c 344.18,-21 721.969,-199.3 1043.1,-282 887.87,-228.8 1624.09,-532.5 2473.72,-864.6 849.78,-391.4 1089.15,-188.3 1591.48,-315.4 569.23,-144 982.29,-425.7 1534.87,-569 1708.28,11 2313.93,948.4 3638.13,1255.5 1004.9,717.8 855.7,2256.8 1523,3001.4 -174,1004.5 59.8,1748.7 243.4,2561 58,256.8 94.4,2257 727.4,3176.9 559.4,1031.4 2334.4,1049.5 4058,1280.3 502.4,67.5 1469.3,129 1855.4,174.8 723.6,85.7 1429.3,-73.7 2009.2,-153.1 1146.1,-156.9 1977.2,-99.5 2955.4,-289.5 1464.2,-284.6 2067.4,-688.9 2655.9,-1883 160.3,-420.5 621,-2447.1 620.8,-3038.4 945,-837.6 672.7,-1733.6 1553.1,-2512 809.3,-713.3 1426.1,-1750.9 2140.9,-2603.8 586.8,-700.2 1301.7,-1175.9 2413,-1026.7 688.8,92.5 1044.3,334.4 1773.8,309.3 321.7,-11.1 1034.7,-120.2 1814.4,-117.3 780,2.9 1650,363.3 2375,190.8 -30.7,-224.5 -314.6,-1033.8 -770,-1143.1 -867.8,-208.3 -1850.6,-278.8 -2640.8,-81.6 -346.7,-111.3 -850.1,-183.5 -1171.1,-292.9 1056.2,-731.9 2163,-507.1 2277,-1916.9 -982.7,65.8 -1744.4,364.6 -2432.9,463.4 -675.9,47.5 -1113.7,485.4 -1759.2,674.6 -537,157.4 -1320.5,58.9 -2617.4,547.5 906,-802.3 1090.7,-713 1443.4,-1660.2 786.6,7 1828.4,-890.4 3054.1,-1438.9 324.8,-46.5 1098.2,-35 1697.5,-96.2 523.5,142.9 1272,95.5 1658,170.5 93,-1110.7 -1367.3,-999.1 -1510.9,-1310.5 232.5,-473.5 896.5,-682.1 1169.5,-1115.1 -333.4,-393.2 -676.4,-338.1 -1014.3,-236.2 -779,235.2 -1210.3,802.9 -1971.1,1022.3 -488.4,140.7 -915.8,306.9 -1550.1,366.6 -482.9,45.4 -1051.8,186.8 -1543.6,293.8 121.5,-476.8 89.5,-885.5 135.4,-1259.3 76.5,-623.1 247.8,-1195 349.2,-1783.1 -689.9,128.2 -1178.2,419.3 -1442,1099.4 -369,951.3 -501.8,2317.7 -586.2,2868.1 -340.6,540.8 -1177.9,726.5 -1687.9,1126.2 -613.5,481.2 -960.1,1150.4 -1202.7,1688 -519.5,241.3 -1062.8,325.8 -1621.9,727.9 310.8,-503.6 190.1,-1093.8 265.1,-1577.7 116.1,-752.7 407.5,-1245.3 738.6,-1584.9 425.9,-436.6 748.1,-590.9 1356.3,-1172.1 292.9,-280.2 651.7,-835.2 960.9,-1082.2 426.8,-340.9 930.6,-321.3 1328.8,-769.8 406.6,-457.9 463.1,-1074 724.4,-1712.1 180.5,-440.4 655.2,-975.8 725.5,-1377.2 -801,-33 -1463.6,171.3 -1796.3,1410.1 -394.7,90.7 -1182,733.2 -1824.6,1197.9 180.7,-779.5 765.8,-1197.5 1034.6,-1883.6 66.2,-168.8 36.4,-451.6 301.6,-982.7 1134.1,-122.6 1553.6,105.8 2028.6,-1198.9 -267.2,107.4 -748.8,345.9 -1116.1,353.8 679.5,-544.2 442.4,-805.1 812.7,-1725.399 -973.3,436.699 -498.8,617.899 -1574.8,972.599 -624.6,205.9 -881.1,220.4 -1211.9,881.8 -101,201.9 -465.8,426.9 -529.1,672.9 -120.4,295.8 -460.2,852.4 -618.6,1251.2 -203.8,512.7 -238.6,866.6 -502.4,1143.9 -142,-165.3 -344.7,-823.1 -707.5,-1068.4 -179.5,-308.4 38.2,-580.9 144.8,-841.7 317.3,-569.3 972.7,-375.2 1003.6,-1054.9 9.8,-210.8 -15.9,-526.3 23.2,-761.9 C 26972.5,898.699 27490.1,922 27653.2,0 25926,103.902 26044.1,1486.4 25320.4,1951.7 c -465.6,-374.6 -1215.7,-642.6 -1834.5,-452.8 307.7,537.5 481.5,1113.3 850.8,1433.5 -319,1345.7 -635.4,1606 110.1,4081.2 -171.1,451 -599.4,1274.1 -1177.4,1793.8 -483.6,435 -501.3,783 -818.2,973.3 -121.5,-634.2 107.7,-1787.5 -210.2,-2460.9 -451,-53.8 -626,813 -707.9,1128.1 -362.1,588 -550.1,1927.4 -474.8,2594.3 -597.5,792.8 -579,1578.9 -1884.7,1663.3 -516.2,-639.1 -1357.1,-1072 -1975,-2048.3 -173.9,-738.5 536.9,-1975.8 936.4,-2491.7 537.3,-694.7 1480.1,-1054.7 1863.9,-1910.7 -430.8,34.8 -1076.1,340.6 -1299.5,361.2 -209.6,-1277.2 274.8,-1819 982.1,-2316 677.5,-443.4 887.4,-246.7 1323.8,-728 365.2,-186.2 1013.7,-89.3 1323.6,-331 -225.6,-370.1 -853.6,-315.4 -1280.1,-506.7 -124.7,-836.8 553.8,-1380.6 419.5,-2008.198 -770.6,376.398 -1259.7,1178.498 -1578.8,2006.698 -787.3,760.1 -1172.8,809.5 -1728.1,1234.2 -53.6,-183.3 -326.8,-457 -368.8,-722.7 -148.2,-936.3 633.2,-1287.4 254.9,-2576.499 v 0"
         style="fill:#482527;fill-opacity:1;fill-rule:evenodd;stroke:none"
         transform="matrix(0.13333333,0,0,-0.13333333,0,3347.5467)" />
      <path
         id="path3"
         d="m 17166.5,7146 c 245.2,-412.3 -25.6,-844.2 0,-1522.3 7.3,-194.1 -3.9,-553.9 15.4,-731.8 74.8,86.4 248.8,417.3 309.8,509 403.1,-489.4 -520.9,-1108.1 -589.9,-1630.3 -80.9,-610.1 270.1,-2045.1 872.5,-2422.1 1.6,771.8 -558.8,1617.5 -431,2102.4 93.8,355.9 405.5,476.6 597.4,846.2 1213.9,-124.9 1172.6,-820.7 2262.8,-1043 129.5,-336.1 379.2,-1012.8 581.4,-1173.5 -61.3,321.3 -22.1,711.9 -63.9,885.5 52.5,112.8 526.9,100.9 547.8,245.3 -127.4,-1.2 -729.4,254.7 -959.3,360.2 -103.6,186.6 -439.9,396.3 -606.2,266.1 -626.3,576.9 -1389.6,745.6 -1532.5,1610.2 -116,701.7 317.3,933.5 -202.1,1693.3 422.8,-45 1139,-342.3 1257.5,-390 -335.7,489.6 -1091.7,701.8 -1318.8,948.4 -453.3,493.7 -541.6,1597.7 -1023.9,2109.3 50.5,-224.5 -419.8,-794.6 -490,-798.9 -143.8,357.3 71,1125.2 -93.4,1345 409.7,439 613.3,547.5 702.1,1203.1 81.3,600.1 94.3,942.5 263.4,1166.4 190.3,251.9 596.2,453.8 1048.2,820.6 -49.4,-514.2 -974.2,-1018.8 -873.9,-1593.8 456.5,116.6 1052.5,971.9 1359.5,1238.7 -210,482.3 -2.4,1274.6 374.9,1589.9 159,-383.6 -292.5,-1240.5 43.7,-1611.2 860.1,200.5 1393.9,-503.9 2061.6,-719.8 -93.2,473.2 -246.1,1047.5 -517.4,1554.9 -500.3,936 -1190.5,1857.8 -1146.7,3004.1 411.7,-278.5 431.5,-885.7 574.6,-1258 106.3,-276.7 204.3,-742.2 351.4,-998.8 376,-655.7 667.5,-1244.4 1102.1,-1837.4 219.7,120.4 -135.3,716.9 198.7,773.5 499.1,-604.9 -250.5,-1147.3 304.9,-1629 -211.9,-289.9 492.1,-930.5 578.9,-1240.9 -363.8,260.1 -585.2,662.7 -907.3,669.8 79.5,-203.5 237.8,-607.7 344,-772.3 -374.7,137.4 -573.6,285.2 -692.7,372.6 -87,-927 316.6,-2211.3 560.9,-2853.6 -119.3,796.4 105.9,1566 -13.4,2170.8 417.8,39.9 743.9,-574.9 1325.1,-700.2 175,441.4 20.1,837 177.2,1016.1 564.7,-419.5 239.5,-1235 419.3,-1765.3 135.4,-399.6 515.1,-472.6 827.9,-650.8 -128.6,-451.4 121.1,-395.5 64.2,-948.2 185.2,-211.8 701.5,-281.8 762.4,-617.9 -123.9,-129.7 -575.3,101.8 -730.1,122.2 -12.7,-277.5 691.2,-382.5 631.1,-707.3 -171.7,-152.3 -405.5,146 -563.5,209.7 -555.2,-256.8 -500.5,-1417.9 -507.4,-2018.8 52.1,-212.8 151.4,-356.1 242.1,-530.1 -156.8,-344.4 48.5,-659.7 227.6,-918.9 -302.2,-128.1 -133.4,-366.5 -977.4,-1200 481.5,-61.4 1186.9,631.2 1370.1,1051.3 491.2,-726.5 1111,-1757.798 1809.7,-2276.998 -184.3,432.399 -889.6,1195.098 -664,1845.098 -150.7,334.5 -385.6,640.7 -793.8,717.9 -128.8,656.9 -738.8,628.2 -617.4,1267.2 37.9,199.6 275.2,347.7 418.9,529.9 379.1,481.5 500.3,1503.5 992.5,1787 83.1,-1137.9 728.9,-1096.4 1102.4,-2091.6 66.4,-199.2 -147.6,-117.3 -264.8,-132.5 250.5,-551 759.9,-1498.8 1191.9,-1894.9 451.9,-414.2 765,-441.2 1818.5,-1271.7 -11.1,436 -495.3,964.5 -919.3,1141.5 256.9,173.5 483.2,255.7 1154.1,49.6 -834.2,743.6 -1064.2,256.9 -1363.9,242.6 -203.2,58 -409.7,379.5 -551.1,463.4 -365,1263.6 -972.2,1915.4 -1439.5,2897.9 -73.7,208 2.4,175.2 99.2,331 -6.4,324.2 -515.2,190.7 -386.1,650.7 1431.3,-311.7 1623.1,-1700.2 3076.9,-1930 -280.5,-493.6 397,-1295.5 1017.9,-1414.1 -201.2,296 -497.4,623.9 -641.2,956.6 -143.7,332.6 -135.3,670.3 -304,986.1 -257.9,482.2 -579,981.9 -1042.9,1104.2 -129.6,-306.6 557.6,-307.8 407.5,-849.7 -807.8,248.8 -1095.2,974.7 -1656.2,1665.8 -436.2,537.4 -1067.7,990 -1564.2,1411.6 -188.2,-26.5 171,-388.3 -65.8,-463.3 -612.4,623.2 -608.8,1573.8 -1410.5,2007.3 537.7,289.8 274.5,1257.4 86.5,1832.3 -273.1,835.6 -1422.3,1163.6 -2062.9,1532.8 -3.5,223.7 431.6,165 542.1,275 18.2,573.1 -762.5,455.9 -277.5,1059.9 495.9,-121.9 671.5,-730.6 1070.5,-949.3 -67.2,374.2 -451.7,452.9 -397.4,948.8 -332,274 -377.8,626.5 -661.5,1235.3 677.6,-405.5 780.8,-907.2 1246.5,-1257.5 -171.9,-596.5 245.4,-936.4 385.5,-1413.2 996.6,-238.9 1925.2,-89.9 2656.7,-594 -112.8,-548.8 1374,-1085.6 1238.3,-1798.2 -605.9,166.3 -834.2,910.3 -1347.2,1169.2 98.5,-1577.9 1855.9,-2204.4 3034.3,-2923.3 55.8,-716.1 -93.5,-1614.1 541.4,-2430.6 -78.3,-107.8 -229.1,-309.7 -264.6,-482.5 166.4,-474.6 552.6,-706.9 861.5,-883.6 -101.8,882.7 -547.5,1807.6 -388.1,2902.4 465.1,24.3 775.1,-162.4 1126.4,-252.6 512.1,516 384.9,117.2 835.8,-111.1 1028.3,-127.4 1570.1,-304.4 2367.8,-731.1 417.9,-223.4 901.6,-896.7 1538.3,-856.8 -242.8,485.6 -926,752 -1191.8,1214.4 275.7,584.7 1277.4,343.1 1787.1,849.4 -552.5,-52.7 -894.9,130.2 -1181.2,-133.8 -637.6,192.2 -995.9,-152.7 -1664.5,-143 -518.4,391 -1218.2,536.1 -1876.8,839.9 -658.6,303.9 -1131.5,733 -1907,936 -428.9,961 -1223,1401.2 -1775.1,2239 -95.7,817.4 73.9,1567 -110.3,2108.9 -152.4,448 -739.8,477.8 -1124,736.7 -543.6,366.4 -991.8,701.8 -1060.8,1346.3 397.3,-247.4 795.6,-790.3 1158.1,-1063.3 643.5,-484.1 1028.2,-482.9 1327.7,-1365.9 147.2,-434 199.5,-950.4 139.7,-1608 939.1,-329.6 1927.1,-366.8 3125,-437.8 744.4,-667 1767.7,-644.8 2011,-883.3 679,108.9 1412.4,-473.6 1844.2,-475.4 -342.6,341.3 -669.9,720.9 -1313.1,717.3 -290.1,214.5 -1268.9,823.3 -1782.3,906.2 502.1,404.3 1630.6,431.8 2171.7,559 582.4,-155.6 3076.2,-82.9 2934.1,464.2 -575.5,206.8 -1445.6,-392.7 -2348.5,-154.6 -554,146.1 -1118.9,61.2 -1420.5,25.8 -799.2,-93.7 -1088.9,-327.3 -1559.4,-474.8 -441.9,-138.5 -784.9,-136.8 -1181.3,-70.6 l 434.8,270.9 c -930.2,179 -1380.2,554.1 -1989.4,1009.1 -99.6,388.3 -1494.1,2017.1 -2347.1,2868.3 -268.1,467.7 -925.5,2032.3 -1151.5,2037.4 -302.7,-1203.8 1122.1,-1625.4 456.5,-2103.8 -120,143.7 -374.7,536.9 -491.1,871 -194.1,557.2 -221.6,1148 -194.7,1595.1 -638.5,874.4 -176.5,1857.8 -663.5,2817.1 -413.1,-204.5 -511.8,-657.2 -1003,-783.5 12.9,-454.2 110.2,-681.7 0.9,-1014 -265.9,87 -421.1,539.8 -431.3,882.6 -630.8,85.6 -1810.2,69.7 -2417.2,-254.6 -804.5,-429.9 -33.3,-1055.1 -515.5,-1794.1 -40,-246.5 146.9,-996.6 44.5,-1240.3 -461.8,331.4 -337.2,1153.5 -397.6,1493 -98,549.8 -24.9,973.7 -108.5,1443.9 -1057.7,-93.2 -2098.3,-54.7 -3128.6,85 -32.4,-427 -222.9,-867.4 -596.8,-1033.9 283.3,490.1 228.5,836.9 291.3,1078.2 -839.2,130.2 -1672,325.9 -2502.4,570.5 -955.3,281.1 -1851.9,475 -2119.2,824.3 -143.7,-481.4 -487.2,-1280 -330,-1844.5 -405.2,-623.2 -258,-1745.1 -276.2,-1862.2 474.4,247.4 681.3,1734.7 694.5,2204.9 589.6,-643.3 -185.2,-1852.5 309,-2250.5 -80.7,-261.2 -178.4,-517 -87.7,-816.8 -781.3,-123.5 -820,-611.3 -1367.7,-968.2 64,-1342.7 -972.9,-2166.6 -1544.8,-2913.9 -369.6,-483 -407.35,-1280 -970.17,-1611.8 -161.09,139.3 136.47,416.6 11.51,519.5 -195.27,-94.1 -495.24,-144.5 -739.51,-10.7 236.77,167.1 716.14,167.9 363.86,505.7 246.72,84.7 658.54,425.9 883.81,531.5 -618.55,242.7 -1336.86,-319.1 -1689.19,-585.5 -571.96,292.6 -1110.25,-171.2 -1676.66,-100 -457.63,57.6 -1000.6,458.5 -1489.8,463.2 -235.44,2.3 -743.72,102.8 -1234.84,217.9 -335.99,78.8 -643.44,405.4 -1610.89,681.9 179.33,-111 495.53,-318 723.17,-455.1 -105.54,-40.1 -458.53,-136.3 -734.1,-309.1 196.44,-6.1 864.87,133 1037.47,102.9 294.93,-235.5 767.66,-366.6 980.05,-430.7 786.07,-237.2 1554.43,-317.9 1799.71,-668.2 -620.13,-97.5 -1016.53,141.6 -1775.02,-396.2 -640.45,161.6 -1395.88,-433.5 -1975.3,-540.9 -299.01,-55.4 -767.11,-87 -1103.92,-89.3 382.03,-224.5 893.25,-322 1125.75,-285.6 403.82,12.5 626.2,290.7 923.82,416.4 213.31,90 510.9,92.9 848.75,36 583.03,-98.3 763.58,288 1241.92,508.9 571.17,-104.5 647.18,-414.2 1241.44,-469.6 958.13,-89.3 1963.46,-93.3 2781.37,59.5 -0.4,-314.9 -149.15,-734.6 4.61,-1040.7 89.04,194.9 223.43,616.8 392.34,534.1 -7.18,-388.1 -125.39,-542.9 -88.17,-897.7 -368.35,-380.7 -1005.11,-548.2 -1270.74,-1031.5 -874.81,14.4 -1088.4,-510.7 -1729.85,-729.5 -1023.72,167.6 -1380.11,603.8 -2347,1011.4 244.82,-247.7 357.11,-343.8 427.04,-449.9 -66.74,-40.4 -527.72,-10.9 -833.38,-125.1 771,-32.8 1178.18,-110.2 1318.45,-169.7 363.56,-200 399.83,-473.4 411.65,-550 -300.59,-118.7 -1205.8,-207.7 -1510.76,-568.5 289.64,76.4 765.69,213.8 1077.28,248.7 400.41,44.8 645.24,-44 862.16,50 469.02,203.2 995.43,221.5 1429.44,336.6 747.98,198.5 912.31,255.7 1326.15,436.2 315.65,279.7 645.78,584.4 1001.13,904.7 -126.24,-285.8 -148.52,-554.6 -549.59,-839.3 327.21,3.1 689.6,273.1 916.21,539 176.2,206.9 253,383.2 280.2,673.2 54.8,585.1 -97.9,1063.2 -111.2,1490.2 220.8,44.6 412.8,-218.3 431.2,-354.2 190.8,29.8 -43.4,673.6 130.9,720 120.8,147.3 660.7,137.2 1062.9,155.4 607.9,788.8 963.4,797.7 1545.3,1239 -62.7,-111.4 -141.4,-276.6 -244,-388.9 -196.2,-214.9 -531.4,-285.4 -734.3,-594.2 -277.5,-422.5 -350.3,-1019.7 -704,-1592.8 565.9,76.1 933,1035.5 1358.3,1380.2 320.7,259.9 690.9,487.7 858.6,838.6 242.3,507.2 75,990.8 253,1421.4 660.8,287.6 1305.3,581.2 1688.5,1279.4 160.4,406.8 -33,963.2 -9.8,1356.8 26.3,445.8 92.4,765.5 174.9,1103.6 202,-485.3 156.6,-786.3 189.3,-1263 49.3,-719.8 305.9,-1306.8 109.5,-1791.7 -555.7,114.2 -1235.3,-437.5 -1414.6,-893.7 85.2,-201.3 685.3,158.1 718.7,-154.6 -74.3,-278.8 -601.1,-204.4 -884.2,-430.5 -209.6,-780.1 -16.4,-1657.8 -222.8,-2458 -253.5,-983 -1581.1,-1326.4 -1763.2,-2242.4 240.7,-233.4 616.6,403.7 929,398.5 C 13491.8,8838.8 12451.7,8941 11076.7,7664.9 10566,7896.8 9944.72,7493 9213.68,7499.1 c -580.51,5.2 -1007.33,288.8 -1627.61,142.9 368.26,-121.6 825.49,-241.7 1233.7,-403.5 245.4,-97.2 513.1,-275.2 713.67,-367.3 -192.88,-345.1 -793.4,-955.5 -706.54,-1116.1 160.06,100.9 1101.95,870.8 1301.6,1160 259.6,74.7 695.9,55.9 1125,74.3 378.4,16.4 751.5,76.7 992.4,46.5 116.4,-319.8 76,-848.4 23.4,-1163.1 -31.6,-188.8 -692.8,-548 -588.3,-1315.1 170.4,372.5 371.7,539.5 646.7,544.1 69.9,-159.5 640.4,-1082.2 648.2,-1541.5 5.5,-327.9 -58.8,-509 -55.4,-984.3 3.6,-506.2 -45.9,-1247.6 381.5,-1445.7 -53.6,340.3 -149.5,869.2 -117.5,1296.9 36.3,484.8 205.5,865.1 209.9,1155.9 3.8,251.7 -85.5,498.4 -118.6,759.2 -118.3,931.6 -302.5,1914.8 52,2803.7 -102.9,98.4 -298.6,-272 -595.7,-198.6 375.8,1092.3 1675.8,1166.9 2340.1,1994 188.6,234.9 345.2,559.8 545.3,764.1 391,-1484.6 981.2,-1605.8 1549,-2559.5 v 0"
         style="fill:#c56623;fill-opacity:1;fill-rule:evenodd;stroke:none"
         transform="matrix(0.13333333,0,0,-0.13333333,0,3347.5467)" />
      <path
         id="path4"
         d="m 7686.3,12353.6 c 372.44,117.9 969.59,120.5 1500.27,214.3 -281.9,-263 -1153.89,-679.2 -1500.27,-214.3 v 0"
         style="fill:#8f422c;fill-opacity:1;fill-rule:evenodd;stroke:none"
         transform="matrix(0.13333333,0,0,-0.13333333,0,3347.5467)" />
      <path
         id="path5"
         d="m 20432.5,13718.4 c -503,154.9 -759.8,796.5 -748.9,1310.3 545.7,-145.7 219,-604.5 748.9,-1310.3 v 0"
         style="fill:#8f422c;fill-opacity:1;fill-rule:evenodd;stroke:none"
         transform="matrix(0.13333333,0,0,-0.13333333,0,3347.5467)" />
      <path
         id="path6"
         d="m 13159.3,15505.4 c 56.6,170.7 438.6,196 537.7,406 230.9,489.4 600.1,883.8 888,1096.1 -116.6,-317.6 -239.8,-651 -395.3,-929.8 -199.2,-357.1 -617.4,-667.6 -1030.4,-572.3 v 0"
         style="fill:#482527;fill-opacity:1;fill-rule:evenodd;stroke:none"
         transform="matrix(0.13333333,0,0,-0.13333333,0,3347.5467)" />
      <path
         id="path7"
         d="m 22725.9,16279.5 c -418,45.2 -646.8,279.8 -794.1,595.6 362.9,145 752.6,-204.1 794.1,-595.6 v 0"
         style="fill:#482527;fill-opacity:1;fill-rule:evenodd;stroke:none"
         transform="matrix(0.13333333,0,0,-0.13333333,0,3347.5467)" />
      <path
         id="path8"
         d="m 19019.6,16279.5 c -319.8,540.7 -366.9,1420.3 -529.4,2051.6 420.5,-630.6 863.2,-1381.6 529.4,-2051.6 v 0"
         style="fill:#8f422c;fill-opacity:1;fill-rule:evenodd;stroke:none"
         transform="matrix(0.13333333,0,0,-0.13333333,0,3347.5467)" />
      <path
         id="path9"
         d="m 15809.9,16312.2 c -180.6,-48.2 -144.5,176.1 -275.8,176.9 -42.8,263.4 152.9,255 109.9,518.4 334.7,33 212.5,-530.9 165.9,-695.3 v 0"
         style="fill:#8f422c;fill-opacity:1;fill-rule:evenodd;stroke:none"
         transform="matrix(0.13333333,0,0,-0.13333333,0,3347.5467)" />
      <path
         id="path10"
         d="m 24115.8,19323.9 c 181.6,-451.2 656.7,-944.4 554.2,-1444.3 -66.8,-325.6 192.1,-837 617.1,-1293 -484,109.8 -818.8,799.4 -995.4,1314.8 -161.4,470.5 -294.8,1011.2 -175.9,1422.5 v 0"
         style="fill:#8f422c;fill-opacity:1;fill-rule:evenodd;stroke:none"
         transform="matrix(0.13333333,0,0,-0.13333333,0,3347.5467)" />
      <path
         id="path11"
         d="m 25064.4,18827.4 c -172.2,-236.6 269.4,-719.1 55.4,-1004 -370.2,247.6 -495.7,1128.7 -663.1,1578.8 190.8,-29.8 300.7,-351.3 475.2,-397.6 24.1,383.9 -444.2,837.7 -100.6,1182.2 420,-489 261.7,-1110.9 551.9,-1653.3 225.8,-421.7 636.5,-807 763.5,-1162.8 -502.8,269.4 -845.9,920.6 -1082.3,1456.7 v 0"
         style="fill:#482527;fill-opacity:1;fill-rule:evenodd;stroke:none"
         transform="matrix(0.13333333,0,0,-0.13333333,0,3347.5467)" />
      <path
         id="path12"
         d="m 21412.5,12045.2 c -138.3,38.3 -244.3,141.8 -452.5,110.1 75.8,-233.1 178.9,-761.4 363.9,-884.6 91.2,85.5 88.2,598.5 88.6,774.5 v 0"
         style="fill:#b55b25;fill-opacity:1;fill-rule:evenodd;stroke:none"
         transform="matrix(0.13333333,0,0,-0.13333333,0,3347.5467)" />
      <path
         id="path13"
         d="m 24441,13435.7 c 827.9,-234.7 1612.3,-1040.8 2389,-995.3 -118.4,147.1 -278.9,285.5 -464.6,409.4 -130.7,87 -274.1,67.4 -424.3,138.5 -150.3,71.2 -308,233.8 -466.4,285.2 -359.6,116.7 -726.2,178.2 -1033.7,162.2 v 0"
         style="fill:#b55b25;fill-opacity:1;fill-rule:evenodd;stroke:none"
         transform="matrix(0.13333333,0,0,-0.13333333,0,3347.5467)" />
      <path
         id="path14"
         d="m 19337.3,24597.8 c 410.4,0 813.5,-14.9 1205,-41.9 -43.2,-43 -87.4,-85.4 -127.2,-132.7 -43.6,-77.2 -76.6,-167.4 -120.3,-244.2 -30.4,-62.6 -54.3,-167.3 -85.2,-229.8 -46.5,-95.1 -294,-299.2 -329.8,-407.3 48.8,49.2 319.3,291.5 367.8,339.9 27,58.4 76.6,144.2 103.4,202.3 131.4,152.8 243.9,306 365.5,459 486,-38.4 952.8,-95.1 1391.6,-164.4 -42.5,-39.4 -83.2,-75.5 -119.9,-102.6 -192.5,-143.1 -317.9,-86 -514.6,-274.4 133.6,36.5 341.4,30.4 474.7,66.7 105.9,81.5 270.1,187.9 385.7,273.2 235.6,-40.4 462.5,-84.5 678.8,-131 1234.2,-265.2 2004.4,-416.3 2298.3,-765.6 -295.5,-18.7 -527.9,-50.7 -838,-68.3 -202.5,22.8 -457.3,-105.4 -660.1,-82.5 -190.6,-19 -1317.4,173.5 -1508.4,154.5 -151.3,-25.6 -797.4,-122.7 -948.9,-148.5 -230,-40.1 -1098.1,-21.2 -1349.8,-100.4 135.2,-28.9 1280.9,26.6 1415.8,-2.3 139.1,26.7 796.3,108 935.4,134.6 291.2,-35.7 694.3,-170 1261.7,-206.7 500.7,-32.4 970.8,25.7 1227.9,-6 l 661.9,-207.7 c -77.5,-227.1 -255.3,-377.3 -589.4,-579.8 -164,29.7 -560.6,-81.8 -617.6,-89.1 -224.6,58.1 -676.1,34.6 -900.7,92.8 -248.5,42.8 -563.7,91.5 -812.5,134.2 -198.2,50.3 -375.5,116.7 -573.9,167 -187.9,28.5 -396.9,40.6 -584.9,69.1 -149.4,17.6 -383.2,18.1 -532.8,35.8 -226.9,26.1 -313.4,95.3 -562.5,107.4 131.7,-39.9 310.8,-123.9 442.5,-163.7 137.3,-14.7 347.4,-46.7 484.8,-61.3 536.3,-138.8 987.4,-356.5 1540.4,-416.5 379,-135.9 658.1,-314.2 1137.1,-407.7 -787.8,-276.1 -1626.4,-356.5 -2981.8,-402.5 -68.8,81.4 -225.7,168.9 -294.7,243.5 -57,83.4 -99.9,177.3 -157.4,260.7 -61.3,61.1 -136.9,112.7 -198.3,173.9 -50.8,44.2 -140.4,89.1 -191.2,133.5 -77.3,67.1 -84.3,146.2 -175.5,204.5 35.5,-61.3 72.7,-171.7 107.9,-233 47.6,-39.3 116,-108.3 163.2,-147.5 153.4,-228.4 313.4,-419.9 467,-648.2 0.9,-1.3 -381.4,-10 -430.8,-10 -914.7,0 -2052.1,63.7 -3005.6,173.5 114.6,94.2 238.1,213.4 336.2,262.8 129.5,88.8 308.9,177.7 438.5,266.6 125.7,64.6 268.2,114 394,178.7 92.5,68.6 168.3,152.5 260.9,221.1 66.6,56.5 133.2,155.5 199.8,212.1 100.3,86 476.3,289.8 563.3,390.7 -92.6,-40.4 -540.2,-265.6 -632.7,-306 -59.2,-52.5 -176.7,-129.2 -235.9,-181.7 -344.1,-173.7 -593.9,-365.5 -937.9,-539.2 l -907.3,-437.6 c -155.8,22.8 -303.3,46.7 -440,72.1 -1509.7,280.7 -2536.4,737.4 -2781.2,1205.9 l 1224.3,63.5 c 550.9,21.5 1076.9,11.7 1627.8,33.3 137.4,-14.9 349.1,-28.2 486.4,-43.1 136.2,10.9 1292.8,18.7 1429.1,29.8 -246.5,41.2 -1309.4,28.2 -1536.7,50.9 -149.9,14.5 -379.3,64 -529,78.6 -189.4,12.2 -396.5,44.8 -585.8,57 -203.7,-7 -389.4,-34.3 -593,-41.3 -251.6,11.2 -535.6,-1.5 -786.9,9.5 -171.4,-6.7 -519.3,40.5 -781.8,61.4 84.2,326.7 653.6,533.2 1418.5,777.4 610.6,195 1370,372.5 2260,488.4 90.2,-59.2 184.5,-140.5 273.6,-195 75.4,-63.8 139.3,-141.4 215.3,-205.5 74.2,-40.9 159.5,-68.7 233.4,-109.8 60,-27.8 157.8,-44.6 217.3,-73.1 90.8,-42.4 572.3,-382.9 674.2,-412.5 -49,48.9 -567.5,411 -615.8,459.6 -55.7,24.4 -138.2,70.7 -193.8,95 -195.7,168.3 -388.9,302.5 -584.8,468.3 606.3,70.3 1269.6,111.6 1985.4,111.6 v 0"
         style="fill:#d98133;fill-opacity:1;fill-rule:evenodd;stroke:none"
         transform="matrix(0.13333333,0,0,-0.13333333,0,3347.5467)" />
      <path
         id="path15"
         d="m 13954,23145.8 c 238.3,391.2 1213.4,629.6 2410.5,868.6 345.1,68.8 706,144.7 1084.5,211.5 45,-42.7 87.3,-88.6 132.7,-131.3 -369.2,-60.7 -720.9,-130.1 -1056.8,-193.2 -1130.3,-212.2 -2052.6,-423.6 -2283.8,-769.5 l -5.3,0.1 c -70.4,-2.7 -170.1,3.9 -281.8,13.8 z m 3101.3,-1368.7 c -86.1,11.1 -168.8,21.3 -246.9,30.7 -1731.1,208.2 -2858.2,540.6 -2908.6,1106.8 l 286.3,14.8 c 26.5,-366 443.6,-683.7 1370.2,-868.7 362.6,-72.3 925.6,-73.4 1389.8,-125.7 108.5,-12.2 226.4,-26.3 350.4,-41.5 l -241.2,-116.4 z m 3510.9,-232.5 c -332.6,-6.1 -679.7,64.7 -1012.7,64.7 -640.8,0 -1427.7,27.5 -2102.1,115.9 44.9,35.7 87.7,66.2 126.7,85.9 19.4,13.3 40,26.9 61.4,40.2 621.5,-76 1339.6,-158.1 1921.5,-158.1 296.1,0 594.7,1.5 890.6,6.3 38.2,-51.2 76.5,-102.6 114.6,-154.9 z m 3065.5,333.4 c -77.9,-23.2 -158.5,-45.2 -242.3,-65.9 -710.8,-174 -1641.6,-239.6 -2616.5,-263.1 -43.2,31.9 -83.4,62.8 -110.3,91.9 -13.6,20 -26.6,40.9 -39.1,61.7 955.1,19.4 1871.3,76.7 2565.8,236.7 55.9,12.9 110.2,26.6 163.5,40.6 88,-35.9 179.5,-70.7 278.9,-101.9 z m 1455.2,1166 0.6,-16 c 0,-238.6 -176.5,-496.6 -513.6,-726 -128.3,-25.2 -243.5,-55.6 -272.3,-59.2 -47.9,12.4 -106.4,21.2 -170.6,27.7 438.2,228.1 669.4,501.9 669.4,751.9 0,37.9 -10.8,72.3 -30.6,103.8 27.3,-1.5 53.1,-3.9 76.9,-6.8 l 240.2,-75.4 z M 22034,24131.6 c 580.2,-122.9 1094.9,-271.7 1516.9,-416.2 398,-136.7 811.6,-221.1 1109.5,-325.7 -59.8,-4.7 -121.8,-9.2 -187.3,-13 -50.4,5.6 -104,2.1 -159.3,-6.2 -273.9,82.2 -628.7,154.2 -971.2,264.4 -440.1,141.7 -986.3,287.7 -1604.7,402.9 76.1,6.8 150.7,14.4 210.4,30.6 25.7,19.8 54.7,41.1 85.7,63.2 z m -1462.2,226.5 c 430.5,-42 842.3,-104.3 1228.3,-179.1 -80.1,-28 -156.1,-46.3 -244.3,-108.7 -347.2,59.9 -715.2,109.4 -1098.3,142.7 39,48.5 76.7,96.7 114.3,145.1 z m -1175,58.1 c 338.6,0 670.3,-14.8 992.6,-41.5 -24.3,-49.4 -46.5,-101.4 -70.9,-150.4 -297.9,22.7 -604.2,35.1 -916.7,35.1 -568.8,0 -1100.2,-54.8 -1599.5,-130 -54.9,44 -109.5,86.4 -164.4,128.8 547.3,90.6 1131.4,158 1758.9,158 v 0"
         style="fill:#c56623;fill-opacity:1;fill-rule:evenodd;stroke:none"
         transform="matrix(0.13333333,0,0,-0.13333333,0,3347.5467)" />
      <path
         id="path16"
         d="m 15157.7,23130 c 218.5,292.2 1036.4,406.7 1993.4,588.4 250.2,47.5 477.6,166.1 749.1,213.3 56.7,-18.6 125.7,-33.9 171.9,-55.9 11,-5.1 27.9,-14.6 49,-27.3 -304.5,-47.5 -594.5,-102.1 -871.2,-151.4 -862.1,-153.8 -1576,-307 -1824,-544.6 -89.5,-7.2 -177.9,-16.1 -268.2,-22.5 z m 2462.9,-1080.2 -139,16.2 c -1451.3,166 -2384.8,433.1 -2384.8,893.1 l 0.3,9 c 78.6,1.5 157.1,2.8 235.3,3.7 l -0.5,-10.8 c 0,-409.7 886.6,-647.8 2263.1,-795.9 63.3,-6.7 130.4,-14.1 200.2,-22.2 -53.6,-30.1 -109.2,-60.2 -167.1,-89.5 l -7.5,-3.6 z m 2713.7,-191.9 c -198.1,-2.2 -396.7,-3.2 -594.2,-3.2 -555,0 -1253.8,87.4 -1824.8,158.7 35.8,21.5 69.9,42.8 101.3,64.3 21.1,10.9 43,21.5 65,31.7 527,-61.8 1153.3,-132.7 1656,-132.7 169.7,0 340.2,0.7 510.6,2.3 28.5,-41.2 57.3,-81.6 86.1,-121.1 z m 2708.9,254.4 c -54.6,-15.1 -110.8,-29.5 -168.9,-43.1 -630.5,-146.7 -1472.3,-194.3 -2342.4,-208.7 -8.7,14 -17.4,27.6 -26.7,41.1 -27.7,27.7 -58.8,53.8 -89.8,79.4 868,-70.3 1692.5,-10.8 2294.6,187.4 40.5,13.3 81.8,18.7 121.5,28.5 73.3,-27.1 143.2,-55.5 211.7,-84.6 z m 1188.1,1007.4 c 22.3,-30.8 34.6,-64.9 34.6,-102.8 0,-238.1 -237,-501 -683.5,-709.9 -68.6,6.7 -130.8,15.4 -181.5,28.6 l -88.3,15.1 c 469,190.3 718.2,438.2 718.2,661.5 0,38.7 -15,72.8 -42.3,103.1 83.7,0.4 164.9,2.3 242.8,4.4 z m -3886.7,951.4 c 1061.7,-76.7 2000.6,-303.5 2662.4,-519 330.5,-108 674.4,-174 919.2,-257.1 -39,-3.8 -76.9,-4.9 -113.2,-0.8 -48,-4.8 -155.7,4 -292.7,19.4 -204.9,52.5 -447.7,103.6 -683.3,175.8 -633.9,193.7 -1535.2,397.9 -2553.6,464.4 21.1,40.1 44.3,82.3 61.2,117.3 z m -741.8,26.9 c 221.8,0 439.9,-7.2 653.5,-20.9 -13.8,-42.1 -27.3,-85.5 -42.6,-119 -198.3,11.7 -400.9,17.9 -606.7,17.9 -499.7,0 -964.2,-49 -1398.9,-114.2 -39.5,29.6 -68,51.5 -77.6,61.1 -21.4,9.4 -46.5,22.2 -72.8,35.6 478.3,78.8 990.9,139.5 1545.1,139.5 v 0"
         style="fill:#b55b25;fill-opacity:1;fill-rule:evenodd;stroke:none"
         transform="matrix(0.13333333,0,0,-0.13333333,0,3347.5467)" />
      <path
         id="path17"
         d="m 16267.3,23099.2 c 197.5,191.5 820.9,312.5 1577,434.2 196.5,31.5 400.7,65.8 613.3,97.4 47.4,-30.5 93.7,-59.9 135.2,-85.3 -223,-29.3 -436.3,-61.8 -640.8,-91.4 -732.9,-106.8 -1334.4,-212.9 -1508.2,-382.8 -61.2,10.3 -121.9,20.4 -176.5,27.9 z m 1873.1,-749.5 h -0.3 c -473,0 -797.6,144.7 -1113,216.6 -462.5,105.4 -812.2,201.1 -824.9,384.4 l -0.7,13.6 v 0.2 0.3 l 0.7,12.3 v 0.1 l 1,8.5 c 49.4,1.4 98.8,2.9 148.5,4.9 l 43,-4.1 -1.4,-9.1 -0.6,-11.3 v -0.2 l 0.6,-12.1 c 22.1,-264 737.6,-418.1 1839.4,-515.3 l 47.3,-4.1 c -47.1,-28 -93.5,-56.4 -139.6,-84.7 z m 1895,-145.5 -59.1,-0.1 c -454.6,0 -1027.7,61 -1493.9,110.4 34.5,29.9 67.8,61.3 101.8,91.4 437.1,-41.6 967.2,-91.7 1389.9,-91.7 l 12.8,0.1 c 16.3,-38.3 32.6,-77.9 48.5,-110.1 z m 2244.3,106.5 c -607.7,-88.4 -1389.9,-104.7 -2158.5,-106.4 l -5.5,4.7 c -38.5,33.4 -59.7,69.9 -82.4,105.4 696.2,0.5 1409.9,11.2 1984.9,74.3 86.6,-27.6 173.4,-53.9 261.5,-78 z m 1273.4,819.6 c 61.2,-32.6 98.5,-70.7 102,-118.3 l 0.5,-7.7 v -0.6 -0.4 l -0.4,-10 v -0.6 l -0.8,-10.6 v -0.1 l -1.7,-10.8 v -0.1 c -29.6,-190.9 -311.6,-399.2 -812.8,-543.2 -87.8,14.4 -172.8,28.4 -251.5,41.9 l -23.1,6.1 c 553.6,122.8 865.5,318.3 896.4,495.8 v 0.2 l 1.5,9.5 v 0.2 l 0.8,9.3 v 0.7 l 0.3,8.8 v 0.3 0.6 l -0.4,6.9 c -8.1,84 -151.3,133.4 -352.6,178.2 134.5,-23 281.4,-43.5 441.8,-56.1 z m -3452.6,615.6 c 859.3,-21.1 1641.3,-153 2233.2,-295.8 -11.3,-0.1 -21,-0.6 -29.1,-1.4 -44,-7.5 -130.1,-20.8 -233.6,-36.9 -568.7,116.2 -1296.8,217.3 -2088.8,226.2 l 118.3,107.9 z m -235.8,2.8 c 58,-1.3 115.5,-0.4 172.9,-1.4 -34.9,-37 -69.4,-74.3 -97.4,-108.9 l -72.1,0.1 c -443.7,0 -853.2,-38.7 -1234.3,-87.6 -35.7,26.4 -77,56.6 -120.5,88.1 280.2,44.6 561.4,19.9 843.3,37.9 169,10.7 338.5,75.6 508.1,71.8 v 0"
         style="fill:#c56623;fill-opacity:1;fill-rule:evenodd;stroke:none"
         transform="matrix(0.13333333,0,0,-0.13333333,0,3347.5467)" />
      <path
         id="path18"
         d="m 18410.3,22509.8 c -1010.3,79.8 -1659.4,208.8 -1659.4,431.5 0,5 0.5,9.9 1.4,14.8 30.6,-2.8 59.5,-5.8 85.8,-8.6 26.6,2.1 92.7,4.2 182.2,6.2 -0.5,-3.4 -1.1,-7.1 -1.1,-10.6 0,-181.2 603.3,-286.6 1539.9,-352 l 3.5,-0.3 c -52.9,-26.7 -103.2,-53.6 -152.3,-81 z m 3394.8,-51.3 c -525.9,-46.6 -1165.2,-53.6 -1785.2,-53.6 l -67.8,0.5 -11.9,8.1 4.4,-8 c -395,5.1 -875.9,47.8 -1262.4,81.4 27.5,25.2 55.1,56.9 82.6,89 380.7,-29.2 868.7,-68.2 1251.8,-68.2 526,0 1067,5 1526.5,35.5 88.5,-27.5 175.6,-56.1 262,-84.7 z m 244.7,828.5 c 95.5,-18.7 185.5,-38 269,-56.9 427.7,-96.2 887.1,-124.5 887.1,-260.2 0,-154 -295.8,-329.2 -841.3,-435.9 -78.6,24.2 -156.5,49.1 -236.5,72.1 525.5,85.8 809.5,231.5 809.5,360 0,110.3 -420.6,133.3 -811.8,210.9 -114.6,22.9 -242.1,46.2 -380.4,68.5 l 304.4,41.5 z m -2126.9,208.3 c 651.3,0 1258.7,-62.5 1760.6,-143.2 -141.6,-21.8 -266.2,-41.4 -324.6,-51.3 -422,53.3 -1017.1,140.2 -1536.5,140.2 -603.3,0 -1026.3,-117 -1498.3,-171.6 -608.3,-70.6 -1108.5,-141 -1258.5,-253.3 -110.3,2 -205.4,4.2 -272.6,7.8 152.7,142.7 706,230.6 1380.9,319.1 515.3,67.6 1090.7,152.3 1749,152.3 v 0"
         style="fill:#b55b25;fill-opacity:1;fill-rule:evenodd;stroke:none"
         transform="matrix(0.13333333,0,0,-0.13333333,0,3347.5467)" />
      <path
         id="path19"
         d="m 18698.5,22694 c -551.3,48.9 -893,122.4 -893,238.7 0,11.8 4.8,23.1 13.4,33.8 125,2 237.7,4.1 320.5,6.2 -22.5,-11.6 -34.7,-24.4 -34.7,-38 0,-73.4 271,-121 712.4,-153.4 l -15.2,-7 c -26.4,-23.4 -64.1,-51.6 -103.4,-80.3 z m 2480.1,-60.1 c -336.3,-19.7 -724.4,-23.1 -1102.4,-23.1 -345,0 -804.8,41.1 -1104.6,61.9 l -110.3,8 10,8.9 c 24.4,20.9 65,48.9 113.8,80.5 42.4,-2.6 86,-5.3 130.8,-7.6 259.2,-13.8 657.1,-40.8 957,-40.8 196.7,0 396.6,0.9 587.8,4.5 40.9,-15.7 80.3,-30 116.1,-40.8 111.9,-12 272,-35.3 401.8,-51.5 z m -1168.9,631.2 c 149.1,0 294.7,-3.8 435.7,-11.1 -186.4,-10.4 -351,-26.3 -439.5,-54.2 90.7,-19.3 636.2,-0.5 1026.2,5.1 246.3,-28.6 464.2,-64.3 641.4,-98.9 297.5,-57.7 616.5,-74.7 616.5,-156.1 0,-97 -226.2,-208.1 -642.2,-270.7 -74.3,7.8 -147.6,16.1 -218.2,26.7 -126,14.9 -312.2,17.8 -457,28.9 157.2,6.1 302.8,14.8 428.3,28.1 382.3,40.9 590,116.7 590,182.9 0,53.9 -276.2,65.2 -533.7,103.1 -344.1,51.1 -865.6,105.4 -1442.9,105.4 -396.3,0 -709.7,15 -1019.3,-11.7 -355.4,-30.6 -687.6,-109.8 -818.8,-154.7 -80.1,6.7 -188.4,11.1 -310.4,14.5 137.7,74 497.4,122.6 928.4,171.4 357.4,40.5 757.8,91.3 1215.5,91.3 v 0"
         style="fill:#b55b25;fill-opacity:1;fill-rule:evenodd;stroke:none"
         transform="matrix(0.13333333,0,0,-0.13333333,0,3347.5467)" />
      <path
         id="path20"
         d="m 19003.8,22871.2 c -124.1,16.8 -193.7,37.7 -193.7,64.4 0,41.7 214.7,66.5 506.4,88.9 l -127.9,-62.5 c -88,-6.8 -141.4,-14.8 -141.4,-25 0,-6.8 19,-12.6 54.2,-17.9 l -97.6,-47.9 z m 1222.3,200.1 c 427.6,0 813.6,-33.2 1068.5,-64.9 191.1,-23.5 396,-30.4 396,-63.8 0,-40.4 -154.2,-87.5 -437.1,-112.4 -177.5,-15.6 -408,-21.6 -650.3,-23.9 -75,19.8 -154.8,37.3 -268.9,42.8 38.5,-11.7 81,-26.9 125.2,-43.9 l -190.9,-0.5 c -221.6,0 -516.9,16.8 -709.5,25 -170.3,7.4 -317.7,16.6 -435.7,27.9 l 80.2,50.9 c 109.3,-8.3 271,-14.6 469.8,-19.3 160.6,-3.8 406.6,-11.2 592.6,-11.2 297.4,0 607,1.3 822.1,11.4 236.6,11.4 365.4,32.6 365.4,50.8 0,14.8 -171.1,18.2 -330.4,28.7 -213.2,14.1 -535.9,29.1 -893.6,29.1 -245.2,0 -459.8,-9 -651.7,-16.6 -104.5,-4.1 -200.8,-7.9 -282.3,-12.4 31,21.1 59.1,41.4 82.9,60.2 l 66.8,4.7 c 229.5,16.6 486.7,37.4 780.9,37.4 v 0"
         style="fill:#b55b25;fill-opacity:1;fill-rule:evenodd;stroke:none"
         transform="matrix(0.13333333,0,0,-0.13333333,0,3347.5467)" />
      <path
         id="path21"
         d="m 19514.9,18463 c 321.9,-322.4 155.4,-1178 333,-1422.5 304.7,-543.2 360.1,-1354 661.9,-1970.7 267.6,-545.9 784.3,-1474.2 1080.9,-1930.5 85,611.2 -74,1389.3 44.4,1544.9 366.3,211.2 976.8,-211.2 1320.9,-222.3 -588.3,655.7 -266.4,1078 -732.6,1533.7 0,0 -1265.5,1044.7 -1398.6,1556 310.8,155.6 799.2,-433.4 799.2,-433.4 133.2,-122.3 743.8,55.6 1187.8,-66.7 -166.5,444.5 -1543,489 -1809.4,1400.3 -266.4,911.4 -222,2289.5 -222,2289.5 -304.8,28 -758.4,24.5 -1196.2,42.5 151.3,-506.4 302.8,-1509.6 420.6,-1984.4 -150.1,229.6 -403.4,863.8 -521.3,1115.2 -30.8,-529 -209.1,-1054.2 31.4,-1451.6 v 0"
         style="fill:#d98133;fill-opacity:1;fill-rule:evenodd;stroke:none"
         transform="matrix(0.13333333,0,0,-0.13333333,0,3347.5467)" />
      <path
         id="path22"
         d="m 22856.2,21174.8 c 0,0 -904.2,26.6 -1056.1,-392.6 -66.8,-184.4 4,-618.4 103,-1022.4 87.5,-356.5 241.6,-623.1 298.1,-741.1 66.6,-138.9 283.1,-262.1 420.4,-451.6 193,-266.6 107.2,-571.2 268,-831.1 182,-294.5 765.8,-862.4 765.8,-862.4 -222,-62.9 -666,-3.8 -765.9,-155.7 686.8,-439.4 992,-1148.9 1420.8,-1511.3 -55.5,-544.6 310.8,-1300.3 421.8,-1333.7 358.9,-137.1 1095.2,-174.2 1443.1,-144.5 -201.8,114.9 -357.2,637.1 -388.6,911.4 122.1,-111.1 799.3,-889.3 1021.3,-1067.1 89.7,-77.7 353.6,-124.7 622.7,-402.9 346.3,-357.7 13.9,-464 787.1,-908.5 0,0 -283.9,504 -429.9,942.1 -132.8,398.9 -115.5,724.4 -369.3,936.2 -532.9,444.6 -965.8,700.2 -1121.2,900.2 -371.2,477.8 -258.4,737.2 -777.1,944.7 -110.9,44.4 -777,-11.1 -910.2,300.1 -133.2,311.2 -688.2,1867.1 -688.2,1867.1 0,0 -596.3,518.2 -837,1035.7 -256.2,550.8 6.5,1127.8 -228.6,1987.4 v 0"
         style="fill:#d98133;fill-opacity:1;fill-rule:evenodd;stroke:none"
         transform="matrix(0.13333333,0,0,-0.13333333,0,3347.5467)" />
      <path
         id="path23"
         d="m 22634.3,13461.4 c 0,0 511.6,-303.9 906.1,-586 348.5,-249.3 567.4,-318.7 624.6,-599 34.4,-168.2 50.7,-497.9 89.9,-748.8 506.9,-396.4 -85.1,-992.9 77.7,-1400.4 616.1,-600.1 1156.2,-1181.8 1165.5,-1800.5 259,-318.5 917.6,-492.6 1176.6,-811.3 -189.1,-40.5 -534.2,-72.7 -755.3,38.3 -486.6,243.9 -842.3,839.3 -931.9,1150.9 -614.3,370.4 -617.9,968.7 -899.1,1517 -81.5,348.3 -445.9,552.1 -305.3,1028.1 -207.2,7.4 -342.3,314.9 -549.4,322.2 -37.1,-155.5 -129.6,-488.8 -166.5,-644.5 0,0 -288.1,463 -376.9,1034 -56.8,365.9 -308.2,1070.7 -56,1500 v 0"
         style="fill:#d98133;fill-opacity:1;fill-rule:evenodd;stroke:none"
         transform="matrix(0.13333333,0,0,-0.13333333,0,3347.5467)" />
      <path
         id="path24"
         d="m 9979.67,7493.4 c 466.33,203.9 817.63,192.7 1165.53,100 499.4,644.6 2112.7,1422.5 2575.3,1600.5 266.4,709.5 514.4,1154 754.8,1722.7 199.8,255.6 222,488.9 355.3,800.1 122,678 22.1,1433.8 111,1611.6 88.7,177.7 1320.9,1333.7 1320.9,1333.7 0,0 -629.4,-57.2 -823.2,39.4 -219.5,109.5 168,691.7 1134,749.7 122.1,466.8 55.5,1278.1 55.5,1278.1 -244.2,700.2 -133.2,1267 -199.8,2067.2 318.1,-155.6 503.2,-789.1 666,-677.9 123.2,639.6 -4.6,1388.1 292.3,1682.6 421.5,418.3 537.1,786.5 651.3,1173.7 103.6,22.2 495.8,-100.1 599.4,-77.8 0,0 -543.9,-2100.6 -455.1,-2411.8 88.8,-311.2 11.1,-1155.9 122.1,-1422.6 -29.6,-661.2 293.4,-698.3 444,-1178.1 -54.1,-541.7 -104.5,-1411.8 -155.4,-1956 -123.8,130.1 -369.7,282.5 -493.6,412.6 93.9,473.9 18.3,1094.3 -342.4,1856 156.2,-823.3 -42,-1542.1 86.9,-2020.4 -520.3,-292 -895.7,-792.4 -927.1,-1059.6 33.2,-388.8 -73,-789.9 -443.9,-1148.7 -353.9,-342.4 -265.7,-651.8 -444.1,-1107.5 -29.7,-133.4 -92.6,-733.5 -122.1,-866.9 -111,126 -155.4,496.5 -266.4,622.5 -281.3,-429.7 -840,-792.8 -1398.6,-1222.6 33.2,-300.1 -166.3,-722.3 -499.3,-866.9 -177.6,-88.9 -910.3,-611.3 -910.3,-611.3 -70.3,-144.4 -140.6,-288.9 -210.8,-433.4 0,0 -1687.3,-322.3 -2642.23,11.1 v 0"
         style="fill:#d98133;fill-opacity:1;fill-rule:evenodd;stroke:none"
         transform="matrix(0.13333333,0,0,-0.13333333,0,3347.5467)" />
      <path
         id="path25"
         d="m 10279.4,13539.5 c 0,0 299.7,744.7 721.5,1122.5 421.8,377.9 710.4,600.1 843.6,1089.2 133.2,489 222,955.7 210.9,1189.1 44.4,-22.2 377.5,366.8 621.7,566.8 244.2,200.1 599.4,300.1 710.4,389.1 111,88.9 -188.7,511.2 188.7,922.5 -299.7,255.6 -233.1,777.9 -188.7,978 44.4,200 -233.1,1444.8 -233.1,1444.8 -133.2,7.3 -244.2,-374.3 -377.4,-455.7 -122.1,570.4 266.4,1363.3 266.4,1511.5 254,-254.9 974.2,-409.5 1272.6,-453 -35.7,-575.8 -128.4,-1556.9 -92,-2113.7 92.3,332.6 252.8,886 315.4,1242.6 48.6,277.5 174,532.8 74.7,758.7 471.7,-159.7 987.9,-286.3 1459.7,-446 251.5,-574.3 -85.2,-1037.3 88.8,-1678.2 -144.3,-355.7 -355.2,-755.8 -444,-955.8 -88.8,-200.1 -177.6,-978 -177.6,-978 -125.9,162.9 -229.5,670.5 -355.2,833.5 86,-424.9 -154.8,-741 -266.5,-2233.8 -207.2,466.7 -159.1,1055.7 -366.2,1522.5 -144.3,-344.5 -399.7,-766.8 -621.7,-1033.6 -222,-266.8 -1032.3,-477.8 -1076.7,-933.5 33.3,-211.2 -743.7,-1222.5 -743.7,-1222.5 140.5,-29.7 614.2,362.8 910.2,299.9 -288.7,-407.6 -599.5,-670.6 -1110.1,-1144.7 -288.6,-211.2 -455.1,-555.7 -743.7,-766.8 -255.3,-81.5 -555,-129.7 -810.3,-211.2 -185,-251.9 -492.21,-692.8 -732.72,-878 -55.51,211.1 410.82,1233.7 655.02,1633.8 v 0"
         style="fill:#d98133;fill-opacity:1;fill-rule:evenodd;stroke:none"
         transform="matrix(0.13333333,0,0,-0.13333333,0,3347.5467)" />
      <path
         id="path26"
         d="m 7260.33,9049.4 c 0,0 854.73,344.6 1043.43,377.9 188.7,33.3 488.43,166.7 488.43,166.7 l 643.79,500.1 410.72,277.9 133.3,155.5 c 0,0 -965.83,-400.1 -999.14,-500.1 -33.28,-100 -299.68,-288.9 -299.68,-288.9 0,0 -1165.53,-322.3 -1420.85,-689.1 v 0"
         style="fill:#b55b25;fill-opacity:1;fill-rule:evenodd;stroke:none"
         transform="matrix(0.13333333,0,0,-0.13333333,0,3347.5467)" />
      <path
         id="path27"
         d="m 16551.1,8982.7 c 148.4,-240 390.7,-280.8 584.4,-511.6 233.9,-278.8 216.6,-775.1 697.7,-783.2 -439.5,545.5 -429.8,1207.7 -827.4,1899.6 -157.4,-232.9 -310.3,-415.2 -454.7,-604.8 v 0"
         style="fill:#af5327;fill-opacity:1;fill-rule:evenodd;stroke:none"
         transform="matrix(0.13333333,0,0,-0.13333333,0,3347.5467)" />
      <path
         id="path28"
         d="m 25415.3,21656.1 c 162.8,155.7 332.7,315.6 415.8,429.7 421.8,-418.7 11.1,-1637.5 599.4,-2678.5 224.9,-997.6 -193.4,-1322.1 843.6,-2511.8 151.7,160.3 207.6,266.1 169.5,422.8 -114.6,470.6 -810.4,890.2 -646.8,1733.4 666.1,-833.6 660.2,-1412.6 1156.9,-2117.1 321.1,-455.4 571.2,-594.8 1451.8,-1606.2 511.4,-614.4 723.9,-1348.1 1155.7,-2008.3 -42.2,170.5 -76.3,359.2 -109.2,554.2 189.8,-126.2 340.1,-190.9 563,-368.4 251.6,-88.9 758.5,-300.1 1010.2,-389.1 -76,-95.2 -167.3,-178.7 -305.3,-244.5 420.9,-60.9 643,-68.5 1021.2,-50 112.4,-215 -1739.7,-329.1 -2580.8,172.3 -266.4,155.6 -421.8,733.5 -421.8,733.5 0,0 -288.6,1044.6 -577.2,1378.1 -288.6,333.5 -1309.9,1311.5 -1309.9,1311.5 -259.1,148.2 -407.1,207.4 -666.1,355.6 -288.6,118.6 -310.8,26 -599.4,144.5 46.9,-582 224.2,-860.8 742.2,-1282.1 573.1,-466.2 1040.9,-435.8 1338.8,-789.3 135.3,-160.6 261.3,-351.5 216.8,-729.3 -722.9,587.4 -1199.3,1006.1 -1772.6,1479.7 -538.3,444.8 -1223.7,782.7 -1679.6,1665.5 125.8,-51.8 473.6,-214.8 599.4,-266.7 214.6,74.1 218.3,248.3 432.9,322.3 -243.7,663.7 -1399.5,3143.4 -1316,3990.4 66.3,-459.9 346.5,-926.8 618.1,-1341.9 -125.3,504.7 -175.6,1166.9 -350.6,1689.7 v 0"
         style="fill:#af5327;fill-opacity:1;fill-rule:evenodd;stroke:none"
         transform="matrix(0.13333333,0,0,-0.13333333,0,3347.5467)" />
      <path
         id="path29"
         d="m 22995,21241.1 c 455.1,33.3 849.2,66.7 1337.6,22.3 -70.1,-452 199.6,-1047 -50,-1422.6 -162.8,222.3 -453.3,522.3 -616,744.6 7.3,-407.6 -85.1,-1026.2 -77.7,-1433.7 -208.1,179.6 -296.4,1537.6 -593.9,2089.4 v 0"
         style="fill:#af5327;fill-opacity:1;fill-rule:evenodd;stroke:none"
         transform="matrix(0.13333333,0,0,-0.13333333,0,3347.5467)" />
      <path
         id="path30"
         d="m 19159.7,16062.3 c -66.6,-355.7 -33.3,-855.8 -11.1,-1011.4 177.6,-578 111,-978 111,-978 -99.9,-296.4 -122.1,-537.2 -11.1,-855.8 418.1,111.2 858.4,-11.1 1343.1,-277.9 -1221.1,955.8 -699.3,1644.9 -1431.9,3123.1 v 0"
         style="fill:#af5327;fill-opacity:1;fill-rule:evenodd;stroke:none"
         transform="matrix(0.13333333,0,0,-0.13333333,0,3347.5467)" />
      <path
         id="path31"
         d="m 12155.3,12983.7 c 415.5,178.1 866.7,507.3 1243.3,811.4 100.9,107.3 159.1,334.4 222,511.2 140.6,-244.6 281.2,-489.1 421.8,-733.6 122.2,144.5 -22.2,1011.5 222,1233.7 512.1,348.9 1144.7,376.5 1509.7,1078.1 -88.8,440.8 -388.5,103.8 -310.8,1311.4 -365.7,-450.3 -254,-810.7 -477.4,-1389.2 -103.6,163 -240.5,503.8 -344.1,666.9 -266.4,-355.7 -499.5,-1200.3 -976.8,-1367.1 -355.2,-88.9 -455.1,-678 -455.1,-678 -477.3,-266.7 -255.3,-522.3 -1054.6,-1444.8 v 0"
         style="fill:#af5327;fill-opacity:1;fill-rule:evenodd;stroke:none"
         transform="matrix(0.13333333,0,0,-0.13333333,0,3347.5467)" />
      <path
         id="path32"
         d="m 28772.8,11171.9 c 192.3,-305.8 1381.5,-878 1776,-1255.9 -11.1,-311.1 -22.2,-1066.9 210.9,-1600.4 62.6,727.4 186.5,1178.4 432.9,1400.4 312.1,-273.3 494,-512.3 807.5,-596.5 313.7,-84.2 804.6,-36.8 1112.9,24.2 0,0 -424.4,131.5 -772.1,322.6 -627.4,344.9 -1023.6,676 -1603.4,772 -412.3,797.2 -941.3,1465.1 -1964.7,2178.4 229.3,-444.6 503.1,-789.1 854.7,-1144.7 -192.5,14.8 -662.4,-115 -854.7,-100.1 v 0"
         style="fill:#af5327;fill-opacity:1;fill-rule:evenodd;stroke:none"
         transform="matrix(0.13333333,0,0,-0.13333333,0,3347.5467)" />
      <path
         id="path33"
         d="m 25420.6,5877.9 c -177.5,-219.2 41.5,-372.7 -112.4,-631.5 -185.7,-312.6 -460.3,-360.4 -309.1,-817.2 1069.2,1095.1 565.2,1260.1 1297.9,2186.1 -405,-17.1 -649.8,-811.1 -876.4,-737.4 v 0"
         style="fill:#af5327;fill-opacity:1;fill-rule:evenodd;stroke:none"
         transform="matrix(0.13333333,0,0,-0.13333333,0,3347.5467)" />
      <path
         id="path34"
         d="m 17534,7389.5 c 335.3,-215.1 65.2,-797.2 16.5,-1188 -33.3,-267.4 22.5,-492.6 -260.6,-883.9 -147.5,827.1 79.9,1550.5 244.1,2071.9 v 0"
         style="fill:#d98133;fill-opacity:1;fill-rule:evenodd;stroke:none"
         transform="matrix(0.13333333,0,0,-0.13333333,0,3347.5467)" />
      <path
         id="path35"
         d="m 26281.7,15591.5 c 349.4,191.4 731.2,-324.4 1051.1,-554.1 218.8,-157.3 443.3,-216.1 651.3,-652 -796.8,266.5 -1323.1,812.4 -1702.4,1206.1 v 0"
         style="fill:#d98133;fill-opacity:1;fill-rule:evenodd;stroke:none"
         transform="matrix(0.13333333,0,0,-0.13333333,0,3347.5467)" />
      <path
         id="path36"
         d="m 16949.5,21158.4 c 314.9,-244.1 -5.8,-799.9 -88.9,-1184.8 -56.9,-263.5 -21.3,-492.7 -338.1,-857.3 -73.4,836.9 217.3,1537.3 427,2042.1 v 0"
         style="fill:#af5327;fill-opacity:1;fill-rule:evenodd;stroke:none"
         transform="matrix(0.13333333,0,0,-0.13333333,0,3347.5467)" />
      <path
         id="path37"
         d="m 8451.85,13199.6 c -483.4,53.9 -947.77,262.2 -1401.89,29.3 -295.55,-151.7 -857.85,-39.6 -1411.15,247.4 235.65,-436.8 989.99,-574.2 1533.7,-606 496.63,-29 915.02,104.4 1279.34,329.3 v 0"
         style="fill:#d98133;fill-opacity:1;fill-rule:evenodd;stroke:none"
         transform="matrix(0.13333333,0,0,-0.13333333,0,3347.5467)" />
    </g>
  </g>
</svg>
