<?xml version="1.0" encoding="UTF-8" standalone="no"?>
<!-- Created with Inkscape (http://www.inkscape.org/) -->

<svg
   version="1.1"
   id="svg1"
   width="3772"
   height="1886"
   viewBox="0 0 3772 1886"
   sodipodi:docname="vecteezy_japanese-cloud-set-asian-traditional-wavy-curly-ornament_48262929.eps"
   xmlns:inkscape="http://www.inkscape.org/namespaces/inkscape"
   xmlns:sodipodi="http://sodipodi.sourceforge.net/DTD/sodipodi-0.dtd"
   xmlns="http://www.w3.org/2000/svg"
   xmlns:svg="http://www.w3.org/2000/svg">
  <defs
     id="defs1" />
  <sodipodi:namedview
     id="namedview1"
     pagecolor="#ffffff"
     bordercolor="#000000"
     borderopacity="0.25"
     inkscape:showpageshadow="2"
     inkscape:pageopacity="0.0"
     inkscape:pagecheckerboard="0"
     inkscape:deskcolor="#d1d1d1">
    <inkscape:page
       x="0"
       y="0"
       inkscape:label="1"
       id="page1"
       width="3772"
       height="1886"
       margin="0"
       bleed="0" />
  </sodipodi:namedview>
  <g
     id="g1"
     inkscape:groupmode="layer"
     inkscape:label="1">
    <g
       id="group-R5">
      <path
         id="path2"
         d="M 28290,0 H 0 V 14145 H 28290 V 0"
         style="fill:#700308;fill-opacity:1;fill-rule:nonzero;stroke:none"
         transform="matrix(0.13333333,0,0,-0.13333333,0,1886)" />
      <path
         id="path3"
         d="m 6491.64,10715.2 19.04,-56.5 c 107.99,-320.8 407.92,-536.2 746.33,-536.2 381.95,0 707.89,272.6 775,648.1 l 6.67,37.3 35.6,-13 c 116.93,-42.8 240.09,-61 366.22,-54.1 466.26,25.6 845.36,411.3 863.05,878.3 9.53,251.5 -81.1,489.5 -255.18,670.3 -174.19,181 -408.38,280.6 -659.44,280.6 -19.66,0 -40.54,-0.8 -65.7,-2.6 l -23.86,-1.7 -8.26,22.4 c -164.46,447.1 -595.11,747.5 -1071.63,747.5 -434.77,0 -838.25,-253.1 -1027.91,-644.6 l -12.57,-26 -27.07,10 c -87.06,32.1 -178.63,48.3 -272.18,48.3 -348.78,0 -651.49,-223.9 -753.26,-557.3 l -11.93,-39 -34.97,21.1 c -89.26,53.9 -191.82,82.5 -296.59,82.6 -0.24,0 -0.49,0 -0.74,0 -286.5,0 -527.61,-219 -573.46,-521.1 -10.63,-70 -4.25,-137.7 19.5,-207.1 34.63,-101.1 -65.82,-212.5 -137.28,-259 -66.76,-43.4 -126.94,-38.8 -210.25,-32.4 -42.51,3.3 -95.46,7.3 -161.67,6.1 -112.3,-2.1 -188.62,-17.6 -249.94,-30 -19.56,-4 -38.02,-7.8 -55.19,-10.5 -191.48,-30.9 -482.08,16.8 -884.25,145.4 572.25,-366.6 988.47,-552.3 1238.95,-552.3 0.65,0 1.28,0.1 1.93,0.1 3.17,0 7.01,0 11.47,0 57.79,0.7 233.49,2.7 451.14,-49.4 93.88,-22.5 135.23,-40.4 183.11,-61.1 41.59,-17.9 88.74,-38.3 184.2,-66.2 154.2,-45.2 254.51,-55.1 343.01,-63.8 109.67,-10.8 196.29,-19.4 322.63,-93.7 139.85,-82.4 300.02,-125.9 463.19,-125.9 286.4,0 550.99,130.5 725.94,358.1 z m 765.37,-656.4 c -346.81,0 -656.23,209.4 -786.86,526.6 -186.39,-216.3 -453.32,-339.2 -740.8,-339.2 -174.52,0 -345.85,46.5 -495.49,134.6 -114.25,67.3 -190.73,74.8 -296.59,85.2 -86.74,8.6 -194.72,19.3 -354.64,66.1 -99.22,29 -148.28,50.2 -191.56,68.9 -45.16,19.5 -84.17,36.4 -172.68,57.6 -210,50.3 -379.8,48.3 -435.6,47.7 -4.65,0 -8.64,-0.1 -11.94,-0.1 -0.72,0 -1.48,0 -2.21,0 -296.89,0 -781.94,228.9 -1482.74,699.8 l -211.81,142.4 240.28,-86 c 509.59,-182.2 876.11,-257.2 1089.49,-222.9 15.87,2.6 32.91,6 52.62,10 60.49,12.3 143.32,29.2 261.43,31.4 69.31,1.3 123.89,-2.9 167.74,-6.3 78.63,-6 121.98,-9.4 170.66,22.3 60.04,39.1 132.3,125.1 111.78,185 -27.16,79.3 -34.43,156.9 -22.22,237.3 23.91,157.5 99.88,302.3 213.93,407.7 116.84,108 266.87,167.5 422.48,167.5 0.28,0 0.53,0 0.8,0 103.06,-0.2 204.23,-25.1 294.91,-72.4 55.76,155.6 157.94,294.7 290.77,394.5 148.27,111.5 324.97,170.5 510.99,170.5 91.47,0 181.22,-14.4 267.22,-42.9 97.5,189.8 243.6,350.5 423.96,465.9 193.52,123.8 417.78,189.2 648.55,189.2 251.54,0 492.54,-76.7 696.93,-221.9 193.43,-137.3 340.33,-325.4 426.02,-545 16.74,0.9 31.89,1.3 46.5,1.3 268.52,0 518.99,-106.5 705.28,-300 186.21,-193.4 283.14,-448 272.95,-716.9 -9.19,-242.4 -108.95,-472.3 -280.92,-647.4 -172.02,-175 -400.1,-278.8 -642.26,-292 -122.2,-6.8 -242.02,8.6 -356.61,45.8 -86.5,-387.1 -429.95,-664.3 -830.36,-664.3"
         style="fill:#700308;fill-opacity:1;fill-rule:nonzero;stroke:none"
         transform="matrix(0.13333333,0,0,-0.13333333,0,1886)" />
      <path
         id="path4"
         d="m 8388.93,12601.8 c -22.87,0 -45.48,-1.1 -67.94,-2.7 -164.96,448.4 -595.86,768.3 -1101.51,768.3 -464.91,0 -866.63,-270.4 -1056.55,-662.5 -88.26,32.5 -183.64,50.2 -283.18,50.2 -369.17,0 -681.23,-244.1 -783.7,-579.8 -91.39,55.2 -198.48,87.1 -313.01,87.2 -309.94,0.4 -559.19,-241.7 -605.71,-548.1 -13.44,-88.6 0.31,-162.2 20.86,-222.2 27.38,-79.9 -57.24,-178.2 -124.52,-222 -88.69,-57.7 -160.99,-17.5 -355.16,-21.1 -152.11,-2.9 -241.5,-30.1 -309.59,-41 -168.3,-27.1 -480.01,0.7 -1105.28,224.4 839.83,-564.4 1249.46,-695.3 1467.09,-694.5 45.37,0.2 224.85,6.7 455.07,-48.5 174.86,-41.8 162.33,-67.3 365.78,-126.9 352.74,-103.2 441.58,-26.7 658.43,-154.4 140.58,-82.7 304.39,-130.2 479.35,-130.2 306.04,0 578.01,145.3 751.16,370.5 109.17,-324.2 415.45,-557.9 776.49,-557.9 403.02,0 737.83,291.1 806.33,674.4 117.2,-42.9 245.25,-63.3 378.91,-56 484.33,26.6 874.74,424.2 893.1,908.9 20.46,539.8 -411.12,983.9 -946.42,983.9"
         style="fill:#e0c088;fill-opacity:1;fill-rule:nonzero;stroke:none"
         transform="matrix(0.13333333,0,0,-0.13333333,0,1886)" />
      <path
         id="path5"
         d="m 4861.58,11209.1 c -190.99,0 -360.47,121.1 -407.09,303.9 -29.15,114.3 0.05,239.7 76.2,327.2 69.2,79.6 169.1,118.5 274.11,106.8 160.72,-17.9 246.5,-172.2 233.8,-305 -11.25,-117.6 -92.14,-190.2 -208.61,-190.2 -7.68,0 -15.5,0.3 -23.48,0.9 l 5.08,63.5 c 139.08,-11.1 160.42,98.1 163.64,131.9 9.83,102.7 -55.22,222.1 -177.47,235.7 -85.16,9.5 -162.94,-20.9 -219.04,-85.3 -62.65,-72.1 -86.61,-175.4 -62.56,-269.7 45.79,-179.5 233.31,-288.2 427.03,-247.5 170.1,35.8 288.89,153 325.9,321.6 44.73,203.8 -38.99,431.7 -203.61,554.1 l 37.98,51.1 c 184.06,-136.9 277.73,-391.4 227.8,-618.8 -42.62,-194.2 -179.29,-329.1 -374.98,-370.3 -31.84,-6.7 -63.56,-9.9 -94.7,-9.9"
         style="fill:#700308;fill-opacity:1;fill-rule:nonzero;stroke:none"
         transform="matrix(0.13333333,0,0,-0.13333333,0,1886)" />
      <path
         id="path6"
         d="m 5729.32,10239.6 c -139.54,0 -281.08,31.1 -414.47,96.9 l 28.17,57.1 c 209.98,-103.6 447.73,-119.2 669.45,-44 221.73,75.3 400.89,232.3 504.48,442.3 82.11,166.5 94.5,355 34.86,530.7 -59.63,175.8 -184.16,317.8 -350.62,399.9 -271.73,134.1 -601.9,22.1 -735.97,-249.7 -51.2,-103.8 -58.92,-221.3 -21.73,-330.9 37.18,-109.6 114.82,-198.1 218.61,-249.3 81.49,-40.2 173.78,-46.3 259.86,-17.1 86.07,29.2 155.61,90.2 195.81,171.7 64.86,131.4 10.67,291.2 -120.79,356 -101.99,50.3 -225.95,8.3 -276.28,-93.8 l -57.09,28.2 c 31.9,64.7 87.08,113.1 155.37,136.2 68.27,23.2 141.49,18.4 206.17,-13.5 162.93,-80.4 230.09,-278.3 149.72,-441.3 -47.74,-96.7 -130.29,-169.1 -232.46,-203.8 -102.16,-34.6 -211.71,-27.4 -308.47,20.3 -119.04,58.7 -208.08,160.3 -250.73,286 -42.65,125.7 -33.8,260.4 24.93,379.5 149.59,303.2 517.97,428.2 821.22,278.6 181.7,-89.6 317.63,-244.7 382.73,-436.5 65.1,-191.9 51.58,-397.6 -38.06,-579.3 -163.57,-331.6 -497.81,-524.2 -844.71,-524.2"
         style="fill:#700308;fill-opacity:1;fill-rule:nonzero;stroke:none"
         transform="matrix(0.13333333,0,0,-0.13333333,0,1886)" />
      <path
         id="path7"
         d="m 8400.5,10670.4 c -161.12,0 -320.22,41.8 -464,123.7 -363.41,207.1 -490.6,671.2 -283.53,1034.6 81.09,142.4 212.75,244.6 370.72,287.9 157.94,43.3 323.33,22.4 465.64,-58.7 115.33,-65.7 198.17,-172.4 233.25,-300.4 35.07,-128 18.2,-262 -47.51,-377.3 -53.41,-93.8 -140.13,-161.1 -244.18,-189.6 -104.06,-28.5 -212.99,-14.8 -306.72,38.6 -76.47,43.6 -131.39,114.3 -154.65,199.2 -23.26,84.9 -12.07,173.7 31.49,250.2 35.71,62.7 93.67,107.7 163.21,126.7 69.56,19.1 142.34,9.9 205.01,-25.8 l -31.53,-55.3 c -47.87,27.3 -103.51,34.3 -156.66,19.7 -53.14,-14.5 -97.43,-48.9 -124.72,-96.8 -35.15,-61.7 -44.18,-133.4 -25.41,-201.9 18.77,-68.5 63.08,-125.5 124.77,-160.7 78.98,-45 170.75,-56.6 258.38,-32.5 87.66,24 160.71,80.7 205.7,159.7 57.3,100.5 72.01,217.4 41.43,329 -30.59,111.6 -102.82,204.6 -203.36,261.9 -127.54,72.7 -275.73,91.4 -417.32,52.6 -141.57,-38.8 -259.56,-130.4 -332.23,-258 -189.7,-332.9 -73.18,-758.1 259.73,-947.8 203.43,-115.9 439.83,-145.6 665.65,-83.8 225.81,61.9 414.01,208.1 529.92,411.5 l 55.31,-31.5 c -124.33,-218.2 -326.2,-375 -568.41,-441.3 -82.61,-22.7 -166.58,-33.9 -249.98,-33.9"
         style="fill:#700308;fill-opacity:1;fill-rule:nonzero;stroke:none"
         transform="matrix(0.13333333,0,0,-0.13333333,0,1886)" />
      <path
         id="path8"
         d="m 26559.6,11075.3 c -734.1,-245.8 -1449.2,-15.6 -1856.4,173.1 80.1,130 129.7,281.2 138.2,444.4 27.1,519.4 -371.9,962.5 -891.4,989.6 -185,9.7 -360.2,-35 -510.5,-119.7 -152.2,432.9 -553.4,753.2 -1040.1,778.6 -547.2,28.6 -1025.8,-324.8 -1177.5,-826.9 -143.8,75 -305.5,121.3 -478,130.3 -643.5,33.6 -1192.4,-460.8 -1226,-1104.2 -33.6,-643.5 460.8,-1192.4 1104.3,-1226 99.1,-5.2 196,2.2 289.1,20.7 117.3,-359.65 446,-627.84 846.4,-648.75 387.2,-20.23 731.9,196.51 893.6,523.35 144.8,-109.4 322.8,-178.2 517.8,-188.4 321.5,-16.8 613.6,129.8 796.1,367.1 1376.7,-380.1 2594.4,686.8 2594.4,686.8"
         style="fill:#e0c088;fill-opacity:1;fill-rule:nonzero;stroke:none"
         transform="matrix(0.13333333,0,0,-0.13333333,0,1886)" />
      <path
         id="path9"
         d="m 20932.8,10372 8.8,-26.9 c 115.9,-355.45 444.5,-607.37 817.7,-626.87 363.2,-19.01 702.1,179.52 863.4,505.67 l 17.1,34.4 30.6,-23.1 c 145.1,-109.6 318.1,-172.5 500.3,-182 298.8,-15.6 586.4,117 769.3,354.7 l 13,17 20.7,-5.7 c 701.2,-193.6 1360.4,1 1790,198.3 288.8,132.7 515.5,284.4 647.2,381.5 -285.4,-70.6 -589.8,-81.3 -907,-31.5 -271.1,42.5 -545,127.3 -814.1,252.1 l -32.5,15 18.8,30.5 c 79.4,128.9 125.6,277.3 133.5,429.3 26.2,501.1 -360.2,930 -861.2,956.2 -172.5,9 -343.1,-31 -493.3,-115.6 l -33.1,-18.6 -12.6,35.8 c -153.2,435.9 -550.3,733.2 -1011.6,757.3 -523.2,27.4 -994.1,-303.4 -1145.4,-804.3 l -11.1,-36.8 -34.1,17.7 c -145,75.6 -301.4,118.3 -465,126.8 -625.1,32.8 -1159.9,-449.2 -1192.5,-1074.1 -15.8,-302.7 87.2,-593.5 290.1,-818.7 202.8,-225.3 481.3,-358 784,-373.8 94.4,-5 189,1.8 281.3,20.2 z m 874.3,-718.67 c -17,0 -34,0.44 -51.1,1.33 -200.4,10.47 -389.6,81.03 -547.3,204.05 -146.6,114.44 -256.3,266.19 -318.6,440.19 -88.7,-15.5 -179.3,-20.9 -269.6,-16.2 -319.7,16.7 -613.8,156.9 -828,394.8 -214.3,237.8 -323.1,544.9 -306.4,864.6 34.5,660 599.5,1168.9 1259.4,1134.4 160.2,-8.3 313.9,-47.7 457.4,-117 80.2,237.3 235.7,446.9 441,593.2 222.2,158.5 484.2,234.6 757.2,220.4 241.9,-12.7 471.2,-96.7 663.1,-243 177.4,-135.2 312.5,-315.1 392.4,-522 152.6,78.5 323,115.1 495.1,106.1 536.1,-28 949.5,-487 921.5,-1023.1 -7.9,-150.6 -50.8,-297.9 -124.6,-428.4 376.5,-169.4 1083,-397.6 1800.9,-157.2 l 150.3,50.3 -119.2,-104.4 c -3.1,-2.7 -313.4,-272.3 -788.6,-490.9 -279.4,-128.6 -560.6,-214.8 -835.9,-256.5 -337.3,-51.1 -666.6,-34.8 -978.9,48.3 -196.1,-243.8 -497.1,-378.92 -809.8,-362.68 -182.4,9.52 -356.2,69.08 -504.9,172.68 -170.6,-314.04 -498.9,-508.95 -855.4,-508.97"
         style="fill:#700308;fill-opacity:1;fill-rule:nonzero;stroke:none"
         transform="matrix(0.13333333,0,0,-0.13333333,0,1886)" />
      <path
         id="path10"
         d="m 20645.7,10282.5 c -174.8,0 -351.8,43.3 -514.8,134.6 l 31.1,55.5 c 478.1,-267.7 1084.8,-96.5 1352.4,381.5 103,183.8 128.1,396.6 71,599.3 -57.2,202.7 -189.9,371.1 -373.7,474 -300.4,168.2 -681.7,60.7 -850,-239.8 -132.8,-237.2 -47.9,-538.4 189.4,-671.3 186.8,-104.6 423.8,-37.7 528.4,149.1 81.9,146.3 29.5,332 -116.8,414 -114,63.9 -258.7,23 -322.6,-91 l -55.5,31.1 c 81,144.7 264.6,196.4 409.2,115.4 177,-99.1 240.3,-323.7 141.2,-500.6 -82.7,-147.7 -236.6,-231 -395,-231 -74.7,0 -150.3,18.5 -220,57.5 -267.9,150 -363.8,490 -213.8,757.9 185.4,331.1 605.6,449.6 936.6,264.2 410,-229.6 556.8,-749.9 327.2,-1159.9 -193.6,-345.6 -553.8,-540.5 -924.3,-540.5"
         style="fill:#700308;fill-opacity:1;fill-rule:nonzero;stroke:none"
         transform="matrix(0.13333333,0,0,-0.13333333,0,1886)" />
      <path
         id="path11"
         d="m 23707.2,11119.6 c -17.3,0 -34.7,0.8 -52.1,2.3 -395.7,34.9 -689.3,385.2 -654.5,780.9 20.9,237.5 133,452.6 315.8,605.8 182.7,153.1 414.2,226 651.6,205 l -5.6,-63.4 c -220.5,19.4 -435.5,-48.2 -605.2,-190.4 -169.6,-142.2 -273.8,-342 -293.2,-562.6 -31.8,-360.8 235.9,-680.1 596.6,-711.8 138.1,-12.2 272.7,30.1 379,119.2 106.2,89.1 171.5,214.2 183.6,352.3 19.8,224.6 -146.8,423.4 -371.4,443.1 -176.3,15.6 -332.2,-115.2 -347.7,-291.3 -5.8,-66.6 14.6,-131.5 57.5,-182.7 43,-51.2 103.3,-82.7 169.9,-88.5 106.5,-9.4 200.6,69.6 210,176 l 63.4,-5.6 c -12.4,-141.4 -137.6,-246.4 -279,-233.8 -83.5,7.3 -159.2,46.7 -213.1,111 -53.8,64.3 -79.4,145.6 -72.1,229.2 9,102.2 57.3,194.9 136,260.8 78.7,66 178.4,97.4 280.7,88.3 259.5,-22.8 452.1,-252.5 429.2,-512.1 -13.6,-155 -86.8,-295.5 -206.1,-395.5 -105.9,-88.7 -236.8,-136.1 -373.3,-136.2"
         style="fill:#700308;fill-opacity:1;fill-rule:nonzero;stroke:none"
         transform="matrix(0.13333333,0,0,-0.13333333,0,1886)" />
      <path
         id="path12"
         d="m 20672.6,2797.9 c -252.5,53.1 -468.1,151 -667.2,118.8 -89.5,-14.4 -175.7,-55.2 -260.3,-138.2 -57,-55.8 -170.8,-99.2 -250.5,-99 h -5.4 c -189.3,0.6 -368.4,90.7 -477.3,245.4 -147.6,209.8 -392.1,346.1 -668.1,344.2 -102.3,-0.8 -200.1,-20.5 -289.9,-55.7 -160.6,-63.1 -344.8,-5.1 -439.6,139 -145.8,221.7 -397.5,367.3 -682.7,365.3 -123.9,-0.9 -241.1,-29.7 -345.7,-80.2 3.7,32.9 5.7,66.3 5.5,100.3 -3.4,476.13 -405.9,856.04 -888,824.55 -416.2,-27.19 -752.9,-368.16 -775.3,-784.75 -7,-129.2 15.8,-252.2 61.7,-363.2 -111.7,54.3 -237.1,84.6 -369.7,83.6 -94.5,-0.6 -185.2,-17 -269.6,-46.7 -207.7,-72.9 -434.7,-3 -569.7,170.7 -185.7,239.1 -476.6,392.1 -802.8,389.8 -451.1,-3.2 -830.7,-302.4 -956.1,-712.1 -38.4,-125.3 -151.8,-211.9 -282.9,-209.9 -5,0.1 -10,0.1 -15,0 -256.7,-1.8 -479,-146.2 -592.4,-357.5 -158.5,15 -314,59.2 -454.6,134.6 -84.5,45.4 -393.2,149.1 -462,150.2 -355.9,5.5 -684.29,-108.9 -971.66,-318.9 -311.81,-227.9 -631.79,-923.7 -631.79,-923.7 236.83,285.1 594.26,675.3 962.96,638 125.72,-12.7 278.47,-85.4 391.86,-141.2 202.53,-99.6 546.93,-246.4 794.93,-290.9 113.4,-20.4 228.4,-30.5 343.7,-30.2 l 128.4,0.3 c 124.7,-133.7 302.9,-216.9 500.2,-215.5 35.6,0.3 70.5,3.3 104.6,8.8 182.8,29.7 363,-49.1 470.6,-199.9 123.7,-173.4 327.1,-286 556.4,-284.3 85.2,0.6 166.6,16.9 241.5,46.2 169.6,66.3 361.3,34.2 495.4,-89 149.5,-137.2 349.3,-220.398 568.2,-218.898 459.7,3.298 829.7,378.598 826.4,838.198 -0.2,24.6 -1.6,48.9 -3.9,72.9 136.9,-394.7 513.1,-677 954.1,-673.9 87.4,0.7 172.2,12.5 252.9,34.2 198.8,53.3 411.1,-14.8 548.6,-167.9 149.5,-166.298 366.7,-270.298 607.9,-268.599 447.2,3.199 807.2,368.299 804,815.499 -0.1,8 -0.5,15.9 -0.8,23.9 44.8,-10.8 91.1,-17.7 138.4,-20.7 57.1,-15.8 115.1,-27.9 173.8,-35.1 376.4,-46.3 765,81.1 1061.3,317.9 75.4,60.2 147.4,128.4 237.2,163.7 71.9,28.3 150.8,33.4 228.1,34 331.1,2.3 690,-67.1 972.9,105 96.2,58.6 175.1,141.2 252.7,222.9 164.3,172.6 328.5,345.3 492.7,518 -308.6,-188.7 -690,-254.4 -1044,-180"
         style="fill:#e0c088;fill-opacity:1;fill-rule:nonzero;stroke:none"
         transform="matrix(0.13333333,0,0,-0.13333333,0,1886)" />
      <path
         id="path13"
         d="m 16847.1,1502.1 c -33.8,0 -67.7,1.8 -101.8,5.4 -214.6,22.6 -423.8,125.9 -574,283.5 -158.8,166.6 -239.5,377.8 -227.2,594.6 21.4,376 308.8,651.8 683.3,655.8 2.5,0.1 5.1,0.1 7.6,0.1 179,0 349.2,-68.6 456.7,-184.4 91,-98 132.8,-223 121,-361.2 -3.8,-44.2 -12.9,-90.7 -27.2,-138.4 l -61,18.3 c 13.1,43.5 21.4,85.7 24.8,125.5 10.2,119.9 -25.8,228 -104.3,312.5 -95.6,103 -248.4,164 -409.9,164 -2.4,0 -4.7,0 -7,0 -340,-3.7 -601,-254.3 -620.4,-595.8 -22.9,-401.7 311,-765.6 744.3,-811.2 31.4,-3.3 62.8,-4.9 93.9,-4.9 392.3,0 754.9,257.3 902.9,651.8 137.3,365.8 75.5,801.5 -157.4,1109.8 l 50.8,38.4 c 245.7,-325.3 310.9,-784.8 166.2,-1170.5 -80,-213.3 -227.5,-399.7 -415.3,-524.6 -167,-111.2 -354,-168.6 -546,-168.7"
         style="fill:#700308;fill-opacity:1;fill-rule:nonzero;stroke:none"
         transform="matrix(0.13333333,0,0,-0.13333333,0,1886)" />
      <path
         id="path14"
         d="m 14924.3,1405.7 -57.7,26.9 c 162.3,349 116.3,768.1 -114.5,1042.9 -237.8,283.4 -662.4,370 -987.4,201.6 -163.1,-84.5 -286.6,-246.4 -330.6,-433.1 -42.1,-179 -8.9,-354.7 93.4,-494.9 111.7,-153 327.1,-232.3 523.7,-192.9 165.9,33.3 282.9,143.4 320.8,302.2 24.9,104 5,217.5 -53,303.8 -35.3,52.5 -100.5,118.7 -210.5,135.5 -104.8,16.1 -212.7,-27.3 -274.9,-110.4 -53.8,-71.9 -61.9,-157.3 -23,-240.5 l -57.6,-27 c -48.7,104 -37.9,215.4 29.7,305.6 76.1,101.7 207.7,154.8 335.4,135.2 103.6,-15.8 193.7,-73.7 253.7,-162.8 67.8,-100.9 91,-233.2 62.1,-354.1 -43.9,-184 -178.9,-311.6 -370.1,-349.9 -223.7,-44.9 -459.9,42.6 -587.7,217.8 -111.8,153.1 -149.7,352.5 -103.9,547 48.1,204.5 183.9,382.1 363.2,475 171.8,89 374.2,115.7 570.2,75.3 194.8,-40.3 370.7,-144.1 495.3,-292.5 123,-146.6 198.8,-332.5 219.1,-537.7 19.3,-195.3 -14.7,-398.8 -95.7,-573"
         style="fill:#700308;fill-opacity:1;fill-rule:nonzero;stroke:none"
         transform="matrix(0.13333333,0,0,-0.13333333,0,1886)" />
      <path
         id="path15"
         d="m 16334.7,1318.7 c 162.7,0 324.3,-70.1 437.4,-196 148.8,-165.598 361.6,-259.501 584,-258.098 207.8,1.5 402.5,83.796 548.4,231.798 145.9,147.9 225.4,343.9 224,551.6 -0.1,5.5 -0.3,11 -0.5,16.4 l -1.8,48.5 40.8,-9.8 c 42.9,-10.3 87.7,-17 132.9,-19.9 l 3.3,-0.2 3.2,-0.8 c 58,-16.1 114.9,-27.6 169.1,-34.2 357.1,-43.9 735.3,69.5 1037.6,311.1 13.9,11.1 27.6,22.4 41.3,33.7 62,51.3 126.2,104.2 204.1,134.8 78.5,30.9 161.5,35.6 239.5,36.2 76.5,0.6 155.4,-2.7 231.7,-5.9 253.2,-10.6 514.9,-21.5 724.9,106.3 93.3,56.8 171.1,138.5 246.3,217.6 l 360.9,379.5 c -279.3,-122.7 -596.6,-157.4 -895.7,-94.6 v 0 c -78,16.4 -151.8,36.8 -223.2,56.6 -161.4,44.7 -300.9,83.3 -432.4,62 -89.5,-14.4 -169,-56.8 -243.2,-129.5 -60.9,-59.7 -182.8,-108.1 -272.1,-108.1 -0.2,0 -0.4,0 -0.7,0 h -5.4 c -201.4,0.6 -389.5,97.3 -503.2,258.9 -145.9,207.3 -383.5,330.7 -636.3,330.7 -1.9,0 -3.7,0 -5.5,-0.1 -96.2,-0.6 -189.9,-18.6 -278.6,-53.5 -174.2,-68.4 -375.1,-4.8 -477.8,151.2 -144.7,220 -387.5,351 -650.2,351 -1.9,0 -3.8,-0.1 -5.6,-0.1 -116.3,-0.8 -228,-26.7 -332.2,-77 l -51.9,-25 6.4,57.3 c 3.8,33.6 5.6,65.2 5.4,96.5 -1.6,222.6 -92.3,428.79 -255.4,580.5 -163,151.6 -375.6,227.04 -598.7,212.49 -403.3,-26.35 -723.9,-350.79 -745.7,-754.69 -6.5,-120.8 13.5,-238.3 59.4,-349.4 l 32,-77.4 -75.4,36.7 c -111.4,54.2 -230.9,81.1 -355.4,80.4 -89,-0.6 -176.3,-15.7 -259.4,-44.9 -218.3,-76.6 -461.6,-3.8 -605.3,181.2 -186.6,240.2 -467,377.5 -770.3,377.5 -2.4,0 -4.8,0 -7.2,0 -428.5,-3 -800.6,-280.2 -925.9,-689.6 -43.2,-141.2 -169.2,-234.5 -313.7,-232.4 -4.8,0 -9.6,0.1 -14.4,0 -236.3,-1.7 -452.7,-132.2 -564.6,-340.7 l -10,-18.7 -21,2 c -168.5,16 -325.5,62.5 -466.6,138.2 -87.6,47 -388.7,145.6 -447.5,146.5 -340.57,5.2 -661.16,-100 -952.38,-312.8 -190.56,-139.3 -387.31,-463.8 -507.1,-685.5 239.95,258.1 526.7,487.1 822.7,457.2 126.88,-12.9 274.39,-81.2 402.69,-144.3 217.19,-106.8 553.49,-246.4 786.49,-288.2 111.7,-20 225.3,-29.9 338,-29.7 l 142.3,0.4 9.4,-10.1 c 122,-130.8 293.9,-205.5 472.3,-205.5 1.5,0 3,0 4.5,0 33.4,0.3 67,3.1 99.7,8.4 193.3,31.4 385.6,-50.1 501.6,-212.8 121.2,-169.9 317.5,-271 525.7,-271 1.6,0 3.1,0 4.6,0 79.4,0.6 156.8,15.4 230.1,44 183.8,71.9 386.3,35.4 528.5,-95.1 148.1,-135.9 339.9,-210.6 540.7,-210.6 2,0 3.9,0.1 5.8,0.1 213.8,1.5 414.2,86.2 564.3,238.4 150.1,152.3 232,353.9 230.5,567.7 -0.2,22 -1.4,44.9 -3.8,70.1 l -24.7,262.7 86.5,-249.3 c 135.6,-391 503.5,-652.5 916.8,-652.5 2.3,0 4.6,0.1 6.9,0.1 83.1,0.6 165.5,11.7 244.9,33 47,12.6 95.2,18.7 143.2,18.7 z M 17350.6,801 c -238.4,0 -466.2,101.5 -625.9,279.1 -130.6,145.4 -333.4,207.6 -516.6,158.4 -84.7,-22.7 -172.5,-34.6 -261,-35.2 -390.4,-2.4 -743.7,213.5 -921.8,551.1 -17.3,-200 -102.8,-386.1 -245.5,-530.9 -162.1,-164.3 -378.4,-255.699 -609.2,-257.398 -2.1,0 -4.2,0 -6.3,0 -216.8,0 -423.9,80.598 -583.7,227.298 -124.2,113.9 -301.3,145.7 -462.3,82.7 -80.6,-31.5 -165.7,-47.7 -252.8,-48.4 -230.6,-1.8 -448.5,109.7 -582.6,297.7 -101.9,142.8 -270.3,214.4 -439.6,187 -35.9,-5.9 -72.7,-9 -109.4,-9.2 -193.1,-1.1 -379.7,77 -514.1,215.5 l -114.7,-0.3 c -1.8,-0.1 -3.6,-0.1 -5.4,-0.1 -114.6,0 -230.4,10.4 -344.1,30.8 -239.2,42.9 -571.8,179.8 -803.27,293.7 -123.34,60.6 -264.66,126.3 -381.02,138.1 -339.14,34.2 -677.88,-316.9 -935.28,-626.7 l -154.22,-185.6 100.83,219.2 c 13.2,28.7 327.05,706 641.92,936.1 302.65,221.1 636.31,330.6 990.94,325 77.6,-1.2 395,-110.2 476.6,-154 127.9,-68.6 269.7,-111.9 421.9,-128.8 125.6,218.1 357.3,353.8 609.8,355.6 5.3,0 10.5,0 15.7,-0.1 1.3,0 2.6,0 3.9,0 114.2,0 213.6,74.9 248,187.4 63.4,207 193.8,393.3 367.2,524.6 179.4,135.8 393.5,208.4 619.2,210 326.3,2.4 627.9,-144.2 828.2,-402 126.9,-163.4 341.5,-227.8 533.9,-160.2 89.8,31.5 184,47.8 280,48.5 108.8,0.8 214.5,-18.3 314.7,-56.9 -31.1,98.7 -44,201.4 -38.3,306.3 11.2,209.3 99.7,407.85 249.1,559.07 149.4,151.26 346.9,242.08 556,255.74 240.6,15.69 470.2,-65.75 646.1,-229.4 176.1,-163.77 274,-386.31 275.7,-626.71 0.1,-16.4 -0.3,-32.9 -1.1,-49.6 98.2,39.8 202,60.3 309.3,61.1 2,0 4.1,0 6.1,0 284.2,0 546.8,-141.6 703.4,-379.6 86.2,-131.1 255,-184.4 401.3,-126.9 96,37.7 197.4,57.2 301.4,57.9 2,0 4,0 6,0 273.6,0 530.5,-133.4 688.4,-357.7 101.8,-144.7 270.5,-231.3 451.3,-231.8 h 5.4 c 0.2,0 0.4,0 0.5,0 73.7,0 177.8,41 227.6,89.8 83.9,82.3 174.7,130.3 277.5,146.9 145.3,23.5 298,-18.7 459.6,-63.5 70.5,-19.4 143.3,-39.6 219.3,-55.6 346.5,-72.8 718.6,-8.7 1020.8,176 l 206.3,126.1 -659.3,-693.2 c -78.1,-82 -158.8,-166.9 -259.3,-228.1 -226.4,-137.8 -498,-126.5 -760.6,-115.5 -75.6,3.1 -153.7,6.3 -228.6,5.8 -71.9,-0.5 -147.9,-4.7 -216.7,-31.7 -68.5,-26.9 -126,-74.4 -186.9,-124.7 -14,-11.5 -28,-23.1 -42,-34.3 -271,-216.5 -600.8,-334.3 -925.2,-334.3 -53.6,0 -106.9,3.2 -159.9,9.7 -56.4,6.9 -115.3,18.7 -175.2,35.1 -33.9,2.3 -67.6,6.6 -100.5,12.8 -2.5,-218.9 -88.1,-424.7 -242.2,-581 -157.9,-160.098 -368.6,-249.098 -593.3,-250.7 -2,0 -4,0 -6,0"
         style="fill:#700308;fill-opacity:1;fill-rule:nonzero;stroke:none"
         transform="matrix(0.13333333,0,0,-0.13333333,0,1886)" />
      <path
         id="path16"
         d="m 21017,8539.96 c -162.3,136.41 -366.9,162.78 -578.8,168.4 -199.6,5.31 -409.5,-16.92 -590.1,68.28 -77.1,36.4 -144.3,90.63 -217.2,134.89 -230.2,139.71 -506.9,174.67 -774.3,206.54 -199.2,23.75 -400.9,47.41 -601.1,46.85 -105.8,115.48 -246.9,200.58 -411.7,236.09 -218.5,47.11 -435.3,-2.17 -606.4,-118.98 -103.6,364.64 -399.8,661.63 -796.2,747.07 -203.8,44 -406.4,25.8 -588.5,-41.3 -91.4,508.1 -479.5,935.7 -1015.4,1051.3 -602.7,129.9 -1197.6,-176.8 -1456.2,-707.2 -146.2,109.1 -317.4,189.5 -507.5,230.5 -708.6,152.8 -1406.9,-297.8 -1559.7,-1006.49 -3.9,-18.17 -7.2,-36.31 -10.3,-54.45 -51.6,23.89 -106.5,42.68 -164.4,55.17 -359,77.38 -713.4,-104.88 -867.9,-420.44 -52.3,-5.76 -104.5,-11.92 -156.6,-18.12 -267.39,-31.87 -544.06,-66.83 -774.28,-206.54 -72.94,-44.26 -140.1,-98.49 -217.26,-134.89 -180.6,-85.2 -390.41,-62.97 -590.02,-68.28 -211.95,-5.62 -416.57,-31.99 -578.88,-168.4 C 7803.58,8413.31 7548.98,8089 7548.98,8089 c 0,0 396.96,228.82 536.48,244.12 266.74,29.24 526.39,-18.36 793.13,10.88 165.52,18.15 332.72,36.3 498.14,17.27 215.31,-24.78 418.6,-111.46 631.37,-152.65 142.9,-27.66 319.9,-41.01 507.1,-51.5 85.3,-61.81 184.4,-107.46 294,-131.08 60.9,-13.13 121.7,-18.56 181.4,-17.36 70.6,-384.98 365.3,-708.6 771.8,-796.22 396.6,-85.5 788.7,77.66 1014.6,384.44 144.8,-247.95 389.1,-436.62 691.9,-501.89 426.5,-91.93 848.2,86.95 1086.3,420.93 141.3,-147.51 326.6,-255.83 541.3,-302.11 424.1,-91.42 843.4,85.03 1082.3,415.43 89.4,-68.96 195.1,-119.62 312.8,-145 364,-78.46 723.2,110.08 874.1,433.83 46.9,-20.37 96.3,-36.5 148.2,-47.67 300.7,-64.83 598.2,52.65 777.7,278.02 246.4,12.64 487.4,24.52 671.6,60.18 212.8,41.19 416.1,127.87 631.4,152.65 165.4,19.03 332.6,0.88 498.1,-17.27 266.8,-29.24 526.4,18.36 793.2,-10.88 139.5,-15.3 536.4,-244.12 536.4,-244.12 0,0 -254.6,324.31 -405.3,450.96"
         style="fill:#e0c088;fill-opacity:1;fill-rule:nonzero;stroke:none"
         transform="matrix(0.13333333,0,0,-0.13333333,0,1886)" />
      <path
         id="path17"
         d="m 12994.4,8762.55 c -3.1,0 -6.3,0.02 -9.4,0.06 -191,2.44 -367.1,80.4 -495.9,219.51 -138,149.01 -196.8,362.66 -153.5,557.56 39.7,178.74 155.1,315.28 325.1,384.45 254.1,103.37 507.2,-58.01 596,-266.89 37.1,-87.32 42.7,-178.52 15.6,-256.79 -30.7,-88.9 -102,-160.32 -206.3,-206.54 l -25.8,58.18 c 198.2,87.9 211.5,254.06 157.9,380.25 -77,181.13 -295.2,321.67 -513.4,232.83 -150,-61.06 -251.9,-181.56 -287,-339.29 -38.8,-174.82 14.1,-366.6 138.1,-500.51 121.9,-131.6 289.4,-198 461.4,-198.01 159.2,-0.01 322.2,56.79 457,171.33 245,208.35 334.7,503.91 246,810.89 -106.4,368.22 -441.3,662.62 -814.5,716.02 l 9,63.1 c 200.7,-28.8 390.7,-119.7 549.5,-262.9 151,-136.1 263.6,-313.2 317.2,-498.55 95.9,-332.1 -1,-651.77 -266,-877.06 -142.6,-121.21 -320.1,-187.64 -501,-187.64"
         style="fill:#700308;fill-opacity:1;fill-rule:nonzero;stroke:none"
         transform="matrix(0.13333333,0,0,-0.13333333,0,1886)" />
      <path
         id="path18"
         d="m 15021.8,7199.39 c -374.5,91.13 -668.5,393.91 -749.1,771.39 -40.5,190.19 -23.3,389.99 48.6,562.59 76.5,183.71 208.3,326.99 381.1,414.36 189.9,96.04 411.7,112.83 608.6,46.05 171.2,-58.06 307.3,-176.99 383.3,-334.88 92.3,-191.77 81.4,-421.05 -28.6,-598.36 -96.6,-155.72 -251.1,-242.68 -435.2,-244.87 -239,-2.76 -435.8,166.21 -457.6,393.2 -11.8,121.86 34.3,242.34 123.2,322.29 81.9,73.58 191.1,103.02 299.7,80.76 l -12.8,-62.35 c -89.9,18.42 -176.7,-4.92 -244.3,-65.75 -74,-66.5 -112.3,-167.01 -102.5,-268.85 18.7,-193.79 187.8,-337.96 393.6,-335.64 161.5,1.91 297.1,78.18 381.8,214.75 97.1,156.6 107.1,367.46 25.4,537.21 -69.6,144.42 -189.4,248.93 -346.5,302.22 -178.1,60.4 -387.2,44.48 -559.4,-42.58 -313.3,-158.43 -476.2,-531.36 -396.1,-906.88 75.4,-353.71 350.9,-637.43 701.9,-722.81 l -15.1,-61.85"
         style="fill:#700308;fill-opacity:1;fill-rule:nonzero;stroke:none"
         transform="matrix(0.13333333,0,0,-0.13333333,0,1886)" />
      <path
         id="path19"
         d="m 12780.1,7654.76 24.4,-41.81 c 145.2,-248.75 389.8,-426.19 671.1,-486.83 401.5,-86.53 815.1,73.72 1053.7,408.3 l 22.3,31.29 26.6,-27.76 c 142,-148.25 323.5,-249.57 525,-293.01 398.7,-85.92 810.7,72.24 1049.8,402.96 l 19.2,26.61 26,-20.05 c 88.8,-68.51 189.8,-115.3 300.1,-139.08 344.8,-74.35 689.6,96.79 838.6,416.16 l 13.1,28.1 28.4,-12.37 c 45.7,-19.86 93.5,-35.25 142.2,-45.73 280.9,-60.59 566.8,41.64 746.1,266.74 l 8.9,11.22 27.2,1.39 c 244.5,12.53 475.5,24.36 654.3,58.98 89,17.21 178.3,43.11 264.7,68.16 119.3,34.55 242.6,70.29 369.1,84.85 169.8,19.53 340.3,0.85 505.3,-17.24 131.1,-14.38 263.7,-9.74 392,-5.27 130.5,4.56 265.4,9.27 401.1,-5.62 90.2,-9.88 275.1,-100.37 405.5,-169.32 -87,104.41 -211.2,247.04 -298.2,320.17 -157.8,132.58 -362,155.71 -559.3,160.95 -40.2,1.07 -81.9,1 -122.2,0.94 -162.4,-0.24 -330.3,-0.51 -480.5,70.36 -51.6,24.31 -98.6,56.09 -144.1,86.82 -24.8,16.76 -50.5,34.08 -76.1,49.65 -228.4,138.6 -511.7,172.36 -761.6,202.15 -192.3,22.93 -391.2,46.63 -590.2,46.63 -2.3,0 -4.6,0 -7,-0.01 l -14,-0.04 -9.5,10.37 c -105.6,115.22 -242.2,193.53 -395,226.48 -203.2,43.8 -409.8,3.25 -581.7,-114.16 l -36.5,-24.91 -12.1,42.5 c -104.2,366.76 -400.1,644.44 -772.3,724.67 -190.6,41.1 -388,27.3 -570.8,-40.07 l -35.6,-13.12 -6.7,37.35 c -92.3,513.24 -481.3,915.94 -990.8,1025.74 -577.9,124.6 -1162.2,-159.1 -1420.9,-690 l -16.8,-34.5 -30.8,23 c -147.9,110.3 -314.5,186 -495.2,224.9 -690.2,148.8 -1373.1,-291.7 -1521.9,-982.1 -3.9,-18.02 -7.1,-36.2 -10,-53.15 l -7.1,-40.92 -37.7,17.44 c -50.7,23.51 -103.8,41.32 -157.8,52.96 -338.2,72.92 -680.5,-92.95 -832.5,-403.33 l -7.7,-15.73 -17.4,-1.91 c -52.7,-5.81 -106.3,-12.13 -156.3,-18.09 -249.92,-29.79 -533.18,-63.55 -761.57,-202.15 -25.65,-15.57 -51.3,-32.89 -76.11,-49.65 -45.5,-30.73 -92.54,-62.51 -144.08,-86.82 -150.24,-70.87 -318.29,-70.58 -480.56,-70.36 -40.3,0.05 -81.93,0.13 -122.2,-0.94 -197.23,-5.24 -401.48,-28.37 -559.24,-160.95 -87,-73.13 -211.19,-215.76 -298.2,-320.17 130.34,68.95 315.29,159.44 405.45,169.32 135.66,14.89 270.63,10.17 401.14,5.62 128.26,-4.46 260.88,-9.11 391.99,5.27 164.94,18.08 335.51,36.76 505.25,17.24 126.56,-14.56 249.85,-50.3 369.09,-84.85 86.42,-25.05 175.79,-50.95 264.74,-68.16 145.6,-28.19 327.7,-41.16 502.8,-50.98 l 9.3,-0.52 7.6,-5.48 c 84.6,-61.34 179.5,-103.64 282,-125.74 56.8,-12.23 115.3,-17.86 174,-16.65 l 27.1,0.55 4.9,-26.63 c 70.7,-385.66 364,-688.24 747.2,-770.85 371.3,-80.07 756.8,66.06 982.3,372.21 z m 912.6,-615.47 c -76.5,0 -153.7,8.06 -230.5,24.61 -283.4,61.1 -531.8,233.87 -688.2,477.04 -243.4,-300.87 -637.9,-441.6 -1018.3,-359.59 -399.7,86.16 -707.7,396.86 -791.3,795.41 -54.6,0.67 -109,6.76 -161.9,18.16 -108.1,23.31 -208.4,67.35 -298.3,130.94 -174.5,9.89 -355.4,23.11 -502.1,51.51 -91.79,17.77 -182.57,44.07 -270.36,69.52 -116.71,33.83 -237.4,68.8 -358.65,82.76 -162.63,18.73 -329.57,0.42 -491.03,-17.29 -135.66,-14.87 -270.62,-10.16 -401.15,-5.6 -128.26,4.47 -260.89,9.11 -391.99,-5.28 -108.96,-11.95 -415.23,-177.34 -524.05,-240.05 l -142.46,-82.12 101.54,129.34 c 10.48,13.35 258.38,328.37 409.83,455.67 172.73,145.17 389.73,170.32 598.51,175.86 41.17,1.09 83.27,1.02 123.99,0.96 155.34,-0.3 316.01,-0.48 453.3,64.28 47.12,22.23 90.11,51.26 135.61,82 25.44,17.18 51.75,34.95 78.71,51.31 240.19,145.76 530.72,180.39 787.1,210.94 44.7,5.34 92.3,10.96 139.6,16.25 168.7,326.56 534.2,499.63 895.3,421.83 45.3,-9.79 90.1,-23.59 133.6,-41.17 1,5.31 2.1,10.67 3.3,16.04 156.2,724.68 872.9,1187.18 1597.5,1030.88 177.4,-38.2 341.8,-110.1 489.3,-214 131,250.4 341.6,456.2 596.4,582.1 274.5,135.7 578.1,173.2 878,108.6 265.6,-57.3 504.5,-191.3 690.8,-387.7 173.3,-182.5 291.1,-407.5 342.1,-652.5 184.1,60.7 380.7,71.3 571,30.2 381.3,-82.17 687.2,-359.48 807.7,-728.58 178.9,109.28 388.6,144.99 594.9,100.5 161.2,-34.75 305.7,-116.02 418.9,-235.37 200.9,-0.57 407.9,-25.25 591,-47.08 256.3,-30.55 546.8,-65.18 787,-210.94 27,-16.36 53.3,-34.13 78.7,-51.31 45.5,-30.74 88.5,-59.77 135.6,-82 137.3,-64.77 298,-64.42 453.3,-64.28 40.7,0.06 82.8,0.14 124,-0.96 208.8,-5.54 425.8,-30.71 598.5,-175.86 v 0 c 151.5,-127.3 399.4,-442.32 409.9,-455.67 l 101.5,-129.34 -142.5,82.12 c -108.8,62.71 -415.1,228.1 -524,240.05 -131.1,14.38 -263.7,9.74 -392,5.28 -130.5,-4.56 -265.5,-9.26 -401.2,5.6 -161.4,17.71 -328.4,36.02 -491,17.29 -121.2,-13.96 -241.9,-48.93 -358.6,-82.76 -87.8,-25.45 -178.6,-51.75 -270.4,-69.52 -182.9,-35.4 -415.5,-47.36 -661.8,-59.98 -92.1,-111.48 -212.2,-196.61 -348.2,-246.65 -144.5,-53.17 -300.9,-64.03 -452.1,-31.43 -42.8,9.23 -85,21.98 -125.9,37.97 -78.2,-152.24 -204.5,-277.72 -358.3,-355.34 -165.5,-83.49 -356.5,-107.91 -538,-68.79 -109,23.5 -209.6,67.74 -299.6,131.65 -256.4,-333.53 -682.7,-491.09 -1095.5,-402.07 -201.6,43.46 -384.4,141.52 -531.1,284.45 -208.7,-272.54 -530.2,-427.89 -866,-427.89"
         style="fill:#700308;fill-opacity:1;fill-rule:nonzero;stroke:none"
         transform="matrix(0.13333333,0,0,-0.13333333,0,1886)" />
      <path
         id="path20"
         d="m 12602.6,7376.56 -34.1,53.76 c 140.7,89.23 238.5,253.28 255,428.14 15,157.16 -35.5,298.88 -142.1,399.06 -123.5,115.99 -327.6,146.19 -485.4,71.79 -129.9,-61.24 -199.1,-179.44 -189.7,-324.3 6,-93.41 55.1,-179.05 131.2,-229.09 70,-45.98 152.3,-55.67 231.8,-27.25 l 21.4,-59.94 c -98.7,-35.31 -201,-23.24 -288.1,33.99 -92.8,60.95 -152.5,164.95 -159.8,278.19 -11.2,172.31 71.2,313 226.1,385.99 183.4,86.44 412,52.32 556,-83 121.3,-113.94 178.8,-274.27 162,-451.46 -18.4,-194 -127.3,-376.35 -284.3,-475.88"
         style="fill:#700308;fill-opacity:1;fill-rule:nonzero;stroke:none"
         transform="matrix(0.13333333,0,0,-0.13333333,0,1886)" />
      <path
         id="path21"
         d="m 17470.1,8284.79 c -147.8,-0.01 -293.8,63.48 -386.9,176.12 -106.1,128.21 -143.1,294.48 -104.3,468.17 42.5,190.18 173.4,357.47 341.6,436.59 l 27.1,-57.6 c -150.8,-70.93 -268.2,-221.47 -306.6,-392.88 -34.4,-154.07 -2,-300.99 91.2,-413.71 108,-130.53 306.7,-186.02 472.6,-131.94 136.5,44.51 219.9,153.14 228.7,298.02 5.7,93.45 -32.2,184.55 -101.5,243.72 -63.7,54.37 -144.1,74.27 -226.5,56.02 l -13.8,62.15 c 102.3,22.69 202.4,-2.09 281.6,-69.76 84.4,-72.08 130.7,-182.72 123.8,-295.99 -10.5,-172.36 -109.9,-301.63 -272.6,-354.68 -50.2,-16.36 -102.4,-24.23 -154.4,-24.23"
         style="fill:#700308;fill-opacity:1;fill-rule:nonzero;stroke:none"
         transform="matrix(0.13333333,0,0,-0.13333333,0,1886)" />
      <path
         id="path22"
         d="m 10919.3,5767.49 c -174,262.78 -502.9,260.83 -787.5,271.52 -187.84,7.06 -383.19,125.79 -580.56,240.4 -19.58,223.69 -170.56,424.36 -398.03,496.13 -225.56,71.17 -462.32,-4.59 -607.09,-173.52 -43.39,324.28 -268.46,610.48 -601.11,715.44 -167.07,52.72 -338.13,52.24 -495.16,8.43 -93.21,378.55 -381.26,699.21 -786.97,813.52 -564.56,159.07 -1164.05,-150.58 -1360.94,-703.08 -51.21,-143.71 -71.07,-290.33 -63.99,-432.97 -96.38,71.28 -208.95,123.88 -333.75,150.78 -470.07,101.34 -933.29,-197.59 -1034.63,-667.66 -8.02,-37.23 -13.26,-74.39 -16.38,-111.35 -12.11,-10.49 -23.97,-21.3 -35.24,-32.77 -324.58,-96.82 -652.86,-380.5 -961.45,-398.9 -284.12,-16.94 -612.62,-23.98 -785.99,-258.93 -137.16,-185.91 -290.24,-348.78 -353.27,-615.74 109.09,103.97 403.6,326.31 832.76,417.59 246.6,52.46 612.39,114.85 852.71,-26.12 345.94,-202.93 546.9,-270.47 695.56,-296.31 77.58,-137.73 211.41,-242.93 378.08,-278.86 115.56,-24.91 230.48,-13.01 332.56,27.79 283.67,-103.62 583.09,-49.97 807.25,113.5 100.18,-256.99 311.46,-468.04 594.98,-557.49 496.72,-156.74 1026.46,118.87 1183.2,615.6 0.19,0.62 0.34,1.25 0.53,1.87 88.51,-155.51 233.53,-279.37 417.63,-337.46 222.66,-70.26 453.75,-29.05 633.22,92.26 192.27,129.95 399.03,237.64 613.93,325.21 129.32,52.7 295.59,143.5 526.15,304.76 240.37,168.13 606.8,108.07 853.8,55.72 429.9,-91.1 725.2,-335.82 834.6,-451.12 -63.6,302.66 -217.2,483.83 -354.9,691.76"
         style="fill:#e0c088;fill-opacity:1;fill-rule:nonzero;stroke:none"
         transform="matrix(0.13333333,0,0,-0.13333333,0,1886)" />
      <path
         id="path23"
         d="m 4225.38,5967.02 c -90.92,-0.01 -178.92,34.79 -253.09,101.11 -100.28,89.67 -157.01,224.97 -148.04,353.1 l 63.5,-4.45 c -7.63,-108.94 41.02,-224.36 126.96,-301.2 76.91,-68.77 170.9,-97.14 264.7,-79.95 108.32,19.88 202.86,115.16 224.79,226.55 17.85,90.63 -17,171.52 -95.59,221.94 -50.4,32.33 -113.08,39.59 -167.66,19.38 -49.82,-18.44 -85.74,-56.84 -101.13,-108.14 l -60.97,18.29 c 20.96,69.87 72,124.38 140.01,149.55 73.22,27.09 157.01,17.56 224.12,-25.51 101.76,-65.28 146.84,-170.19 123.67,-287.8 -27.22,-138.21 -140.61,-252.06 -275.74,-276.87 -21.91,-4.01 -43.81,-6 -65.53,-6"
         style="fill:#700308;fill-opacity:1;fill-rule:nonzero;stroke:none"
         transform="matrix(0.13333333,0,0,-0.13333333,0,1886)" />
      <path
         id="path24"
         d="m 8921.81,5524.49 c -0.15,0 -0.28,0 -0.42,0 -136.68,0.09 -262.32,45.91 -363.33,132.49 -111.04,95.19 -180.2,231.58 -189.76,374.19 -8.34,124.41 31.4,242.66 111.9,332.93 97.84,109.72 247.01,163.49 389.36,140.35 123.74,-20.13 223.22,-98.02 272.92,-213.72 65.77,-153.09 9.45,-325.02 -131.02,-399.92 -75.72,-40.38 -166.15,-42.94 -241.9,-6.87 -69.99,33.35 -118.67,96.43 -133.55,173.07 l 62.49,12.13 c 11.15,-57.44 46.11,-102.8 98.43,-127.73 57.6,-27.44 126.59,-25.36 184.58,5.56 111.02,59.21 155.09,196.2 102.48,318.64 -41.54,96.7 -121.32,159.21 -224.65,176.02 -119.18,19.4 -249.39,-27.67 -331.63,-119.9 -70.03,-78.53 -103.19,-177.53 -95.9,-286.31 8.3,-123.81 70.99,-247.22 167.68,-330.11 176.14,-150.99 445.28,-155.64 654.48,-11.25 197.44,136.24 301.09,377.21 264.05,613.89 l 62.89,9.84 c 40.79,-260.68 -73.35,-526.08 -290.79,-676.13 -109.51,-75.57 -240.3,-117.17 -368.31,-117.17"
         style="fill:#700308;fill-opacity:1;fill-rule:nonzero;stroke:none"
         transform="matrix(0.13333333,0,0,-0.13333333,0,1886)" />
      <path
         id="path25"
         d="m 7153.65,4647.87 -45.26,44.76 c 279.51,282.68 442.15,783.75 212.19,1194.48 -184.72,329.94 -633.37,575.29 -1036.09,396.29 -188.33,-83.7 -341.28,-259.42 -399.16,-458.59 -48.04,-165.3 -25.09,-330.6 64.62,-465.46 101.49,-152.54 282.16,-252.51 460.28,-254.67 145.63,-1.77 270.98,62.28 353.73,180.32 101.48,144.77 114.38,373.02 -39.7,504.42 -67.51,57.57 -160.23,86.6 -248.09,77.64 -52.34,-5.34 -126.32,-26.58 -181.46,-97.42 -34.08,-43.81 -54.03,-98.12 -56.14,-152.95 l -63.61,2.45 c 2.63,68.04 27.32,135.37 69.53,189.59 53.79,69.12 133.78,112.33 225.22,121.65 104.81,10.74 215.37,-23.9 295.85,-92.53 181.65,-154.91 168.34,-421.31 50.52,-589.38 -93.9,-133.97 -235.73,-207.48 -399.89,-207.49 -2.25,0 -4.47,0.01 -6.73,0.04 -198.54,2.42 -399.71,113.54 -512.51,283.08 -100.26,150.73 -126.1,334.86 -72.75,518.47 62.97,216.69 229.44,407.89 434.45,499 195.21,86.76 421.19,86.24 636.3,-1.49 201.75,-82.27 377.13,-236.03 481.18,-421.87 110.83,-197.97 144.2,-429.63 96.51,-669.93 -44.48,-224.13 -157.77,-437.36 -318.99,-600.41"
         style="fill:#700308;fill-opacity:1;fill-rule:nonzero;stroke:none"
         transform="matrix(0.13333333,0,0,-0.13333333,0,1886)" />
      <path
         id="path26"
         d="m 5630.81,5076.45 15.01,-38.51 c 100.92,-258.92 310.46,-455.27 574.89,-538.71 232.12,-73.22 478.9,-51.7 694.83,60.64 215.94,112.35 375.2,302.07 448.45,534.2 l 0.49,1.74 21.78,70.01 36.27,-63.72 c 88.04,-154.67 229.94,-269.33 399.55,-322.86 205.88,-64.94 426.69,-32.78 605.83,88.29 187.29,126.6 395.81,237.06 619.73,328.31 143.58,58.52 313.64,157.09 519.92,301.37 240.17,168 595.74,120.73 878.64,60.78 375.5,-79.58 640.2,-270.69 769.7,-383.31 -58.2,189.59 -153.6,328.01 -253.7,473.28 -22.9,33.13 -46.5,67.38 -69.4,101.96 -156.3,235.99 -442.4,246.04 -719.2,255.75 -14.4,0.5 -28.7,1 -43,1.54 -186.98,7.03 -380.48,119.65 -567.62,228.56 l -42,24.42 -1.44,16.45 c -19.14,218.62 -166.69,402.54 -375.9,468.55 -206.98,65.3 -432.06,0.98 -573.35,-163.88 l -46.28,-54.01 -9.43,70.49 c -42.99,321.3 -270.32,591.87 -579.15,689.32 -155.39,49.03 -320.34,51.83 -477.04,8.13 l -31.6,-8.82 -7.85,31.86 c -93.85,381.14 -386.86,684.04 -764.7,790.5 -549.76,154.87 -1130.61,-145.17 -1322.31,-683.14 -48.39,-135.77 -69.31,-277.31 -62.19,-420.69 l 3.33,-67.14 -54.04,39.97 c -96.21,71.13 -204.39,120 -321.53,145.25 -452.12,97.45 -899.33,-191.09 -996.81,-643.26 -7.33,-33.99 -12.64,-70.09 -15.78,-107.32 l -1.09,-12.9 -9.79,-8.48 c -13.28,-11.5 -23.88,-21.35 -33.37,-31.01 l -5.74,-5.86 -7.87,-2.34 c -133.4,-39.79 -270.87,-113.72 -403.8,-185.22 -186.36,-100.23 -379.06,-203.87 -564.85,-214.95 -14.21,-0.85 -28.54,-1.67 -42.94,-2.49 -264.13,-15.17 -563.5,-32.37 -719.34,-243.56 -22.83,-30.95 -46.38,-61.62 -69.15,-91.29 -97.81,-127.43 -191.1,-248.96 -248.93,-411.55 129.68,102.24 392.71,275.45 765.34,354.71 281.77,59.94 635.92,110.7 875.43,-29.79 372.26,-218.37 561.58,-270.98 684.91,-292.41 l 14.87,-2.59 7.41,-13.15 c 75.94,-134.83 206.09,-230.83 357.06,-263.38 105.57,-22.74 214.16,-13.68 314.04,26.25 l 11.3,4.51 11.43,-4.18 c 261.84,-95.64 552.54,-54.78 777.58,109.32 z m 865.24,-683.58 c -98.63,0 -197.74,15.13 -294.5,45.66 -270.11,85.23 -486.69,280.58 -599.69,539.14 -233.87,-155.09 -526.34,-191.98 -792.5,-98.75 -108.51,-40.88 -225.69,-49.52 -339.71,-24.95 -163.84,35.33 -305.73,137.48 -391.52,281.28 -187.55,35.34 -401.78,127.6 -691.52,297.56 -220.65,129.44 -559.46,79.98 -829.98,22.44 -475.11,-101.06 -764.28,-358.84 -817.43,-409.5 l -77.54,-73.9 24.61,104.26 c 54.18,229.51 174.17,385.83 290.21,537 22.59,29.43 45.94,59.86 68.42,90.32 173.58,235.23 488.8,253.34 766.91,269.31 14.36,0.83 28.63,1.65 42.8,2.49 171.79,10.25 349.91,106.04 538.48,207.47 133.24,71.66 270.93,145.7 408,187.8 6.58,6.49 13.65,13.1 21.56,20.15 3.46,35.41 8.77,69.84 15.81,102.54 104.87,486.47 585.98,796.91 1072.45,692.07 105.3,-22.7 203.88,-63.14 293.83,-120.47 0.59,130.18 23.12,258.47 67.22,382.22 202.91,569.39 817.66,887.01 1399.55,723.03 389.47,-109.73 693.79,-416.74 801.1,-805.36 159.16,38.34 325.1,32.64 481.98,-16.87 166.66,-52.59 313.27,-151.34 424,-285.58 94.07,-114.04 158.48,-248.65 188.26,-392.45 158.2,149 385.41,202.55 595.95,136.11 228.52,-72.11 391.23,-270.09 418.47,-507.12 l 13.73,-7.99 c 188.68,-109.81 366.9,-213.53 538,-219.96 14.2,-0.53 28.5,-1.04 42.9,-1.54 279.2,-9.8 595.6,-20.9 770,-284.22 v 0 c 22.5,-34.07 46,-68.08 68.7,-100.97 116.2,-168.56 236.3,-342.87 290.8,-601.81 l 23.1,-109.94 -77.4,81.49 c -53.2,56.12 -343,341.2 -818.1,441.88 -270.3,57.29 -608.83,103.3 -828.96,-50.66 -210.21,-147.03 -384.35,-247.82 -532.38,-308.15 -219.85,-89.59 -424.45,-197.97 -608.11,-322.11 -195.32,-132.01 -436.11,-167.09 -660.63,-96.24 -163.43,51.56 -303.26,155.18 -399.83,294.96 -85.66,-220.27 -246.45,-399.95 -458.17,-510.11 -141.02,-73.37 -294.33,-110.53 -448.87,-110.53"
         style="fill:#700308;fill-opacity:1;fill-rule:nonzero;stroke:none"
         transform="matrix(0.13333333,0,0,-0.13333333,0,1886)" />
      <path
         id="path27"
         d="m 27597,4992.03 c -119.2,15.44 -287.1,32.18 -390.8,102.36 -96.1,65.07 -157.6,188.04 -224.2,283.01 -161.2,229.95 -430.2,386.48 -742.3,453.65 -72.3,15.57 -146.1,26.54 -220.3,33.49 -84.4,7.89 -162.1,33.17 -246.7,44.66 -82.8,11.24 -166.3,16.37 -250,17.97 -102.6,218.4 -301.7,388.52 -555.5,444.31 -103.1,22.64 -205.8,24.2 -303.9,7.95 24.1,388.86 -237.8,748.07 -630.2,834.3 -188.7,41.46 -376.5,12.92 -536.3,-68.21 -121.2,386.11 -439.7,698.47 -863.3,791.55 -629.6,138.36 -1252.2,-259.89 -1390.6,-889.52 -12.3,-56.19 -20.2,-112.32 -24.2,-168.06 -79.2,51.57 -168.7,90.09 -266.4,111.56 -433.8,95.34 -862.8,-179.07 -958.2,-612.92 -11,-50.43 -16.9,-100.77 -18.3,-150.56 -145.6,-53.93 -261.5,-178.35 -297.3,-341.19 -42.8,-194.79 41.5,-387.8 197.5,-492.76 -16,-37.18 -28.8,-76.34 -37.8,-117.35 -76.6,-348.5 143.8,-693.1 492.3,-769.68 209.5,-46.02 417.4,15.33 566.7,147.18 134.3,-247.64 371.1,-437.89 667.8,-503.1 471.3,-103.57 937.9,142.14 1130.1,564.25 135.3,-149.29 316.5,-259.63 528.3,-306.17 454.3,-99.83 904.2,124.89 1108.2,519.3 84.8,-59.74 182.6,-103.99 290.3,-127.65 301.1,-66.16 599.7,45.84 786.2,265.49 7.1,0.62 14.2,1.04 21.2,1.75 317.5,32.18 607.1,278.52 924.4,244.08 291.5,-31.64 518.5,-290.57 791.1,-410.21 267.8,-117.58 583.1,-91.29 832.5,69.42 -117.2,33.87 -257.6,5.22 -380.3,21.1"
         style="fill:#e0c088;fill-opacity:1;fill-rule:nonzero;stroke:none"
         transform="matrix(0.13333333,0,0,-0.13333333,0,1886)" />
      <path
         id="path28"
         d="m 23754.9,5904.99 c -30,0 -60.2,2.33 -90.2,7.06 -138.6,21.8 -261.2,91.24 -354.8,200.82 -87.7,102.76 -143.9,236.31 -158.2,376.05 -28.4,277.18 106.5,550.38 343.7,696.02 l 33.3,-54.24 c -216.4,-132.92 -339.6,-382.29 -313.7,-635.3 27.5,-268.18 216.4,-482.21 459.6,-520.48 133.5,-21.03 276.3,13.33 382,91.86 92.9,69.05 150,164.07 165.3,274.78 17.8,130.03 -33.8,267.69 -131.7,350.71 -84.9,72.03 -190.6,93.46 -297.4,60.36 -135.5,-41.95 -216.1,-172.28 -187.4,-303.16 15.1,-68.43 61.1,-125.85 123.2,-153.6 56.5,-25.24 117.6,-22.22 172,8.49 l 31.3,-55.42 c -71.4,-40.31 -154.9,-44.39 -229.2,-11.19 -80.5,35.97 -140.1,110.01 -159.4,198.07 -35.9,163.46 63.3,325.8 230.6,377.62 126.6,39.19 256.9,12.71 357.5,-72.63 115.8,-98.23 174.6,-254.54 153.5,-407.91 -17.3,-126.21 -84.9,-238.86 -190.4,-317.21 -97.1,-72.12 -217.2,-110.69 -339.6,-110.7"
         style="fill:#700308;fill-opacity:1;fill-rule:nonzero;stroke:none"
         transform="matrix(0.13333333,0,0,-0.13333333,0,1886)" />
      <path
         id="path29"
         d="m 24394.2,4851.96 c -183.7,104.55 -316.4,306.6 -338.1,514.76 -18,173.11 41.9,330.32 168.6,442.66 134,118.7 327.2,164.67 492.4,117.07 138.7,-39.97 237.7,-139.45 278.9,-280.12 32.9,-112.71 11.6,-236.52 -57,-331.21 -63.9,-88.25 -158.2,-138.75 -265.5,-142.18 l -2,63.63 c 87.1,2.78 163.8,43.94 216,115.9 57.1,78.87 74.9,182.04 47.4,275.99 -34.8,119 -118.4,203.11 -235.5,236.83 -144.7,41.69 -314.4,1.05 -432.5,-103.55 -110.9,-98.34 -163.3,-236.29 -147.5,-388.42 19.7,-188.4 139.9,-371.32 306.3,-466.04 l -31.5,-55.32"
         style="fill:#700308;fill-opacity:1;fill-rule:nonzero;stroke:none"
         transform="matrix(0.13333333,0,0,-0.13333333,0,1886)" />
      <path
         id="path30"
         d="m 22701.4,4661.49 -56.9,28.5 c 210.9,421.34 148.1,918.98 -152.7,1210.15 -276.6,267.61 -768,385.3 -1111.7,119.03 -167.4,-129.73 -280.7,-339.76 -295.6,-548.14 -8.7,-121.17 11.4,-297.03 156.2,-446.73 133.4,-137.95 339.7,-206.77 525.5,-175.37 150.3,25.39 267.6,114.07 330.5,249.69 72.1,155.6 57.4,384.3 -111.7,501.64 -80.4,55.82 -185.9,75.41 -282.1,52.45 -80.6,-19.25 -145.3,-67.4 -182.1,-135.56 -26.6,-49.24 -38.4,-106.46 -33.1,-161.13 l -63.4,-6.09 c -6.4,67.11 7.9,137.24 40.5,197.47 45.5,84.32 124.8,143.71 223.3,167.22 113.6,27.11 238.1,3.92 333.2,-62.06 173.5,-120.39 230.7,-370.04 133.1,-580.7 -71.9,-155.23 -206,-256.69 -377.6,-285.7 -205.9,-34.79 -434.3,41.3 -581.9,193.88 -125.7,129.98 -187.5,305.96 -173.9,495.53 16.2,225.87 138.8,453.45 320.1,593.92 169.5,131.27 388.8,186.76 617.8,156.33 215.2,-28.64 420.2,-128.05 577.1,-279.94 165,-159.63 265.5,-371.88 290.8,-613.77 23.4,-224.25 -21.2,-462.42 -125.4,-670.62"
         style="fill:#700308;fill-opacity:1;fill-rule:nonzero;stroke:none"
         transform="matrix(0.13333333,0,0,-0.13333333,0,1886)" />
      <path
         id="path31"
         d="m 20906.1,4704.1 19.1,-35.16 c 135,-248.96 370.7,-426.54 646.7,-487.18 445.3,-97.86 905.5,131.91 1094.2,546.35 l 20.1,44.03 32.5,-35.84 c 136.3,-150.37 313.2,-252.88 511.5,-296.46 429.8,-94.48 871.1,112.33 1073.1,502.83 l 16.8,32.41 29.8,-21.01 c 84,-59.14 177.8,-100.38 278.8,-122.58 280,-61.54 569.3,36.19 755.1,255.01 l 8.5,9.96 13,1.14 c 3,0.26 6,0.49 9.1,0.72 3.9,0.3 7.8,0.59 11.7,0.98 133.8,13.56 266.5,68.12 394.9,120.89 171.6,70.55 349.2,143.46 536.1,123.17 187,-20.29 348.2,-129.94 504.2,-235.97 95.3,-64.79 193.8,-131.77 296.3,-176.74 230,-100.98 501.3,-90.62 727.2,23.84 -40.7,3.09 -83.5,2.2 -127.8,1.31 -54.4,-1.1 -110.7,-2.24 -164.1,4.67 v 0 c -8.7,1.12 -17.6,2.26 -26.8,3.42 -122.6,15.52 -275.3,34.83 -377.7,104.14 -78.2,52.92 -132.5,137.46 -185,219.2 -16.3,25.39 -31.6,49.35 -47.5,71.9 -151.8,216.59 -408.5,373.13 -722.9,440.81 -69,14.84 -141.8,25.92 -216.6,32.91 -48.5,4.53 -94.8,14.58 -139.6,24.29 -35.2,7.64 -71.7,15.54 -108.4,20.52 -74.9,10.18 -155.5,15.96 -246.3,17.68 l -19.8,0.38 -8.4,17.92 c -103,219.32 -297.5,374.88 -533.6,426.75 -96.4,21.19 -194.5,23.76 -291.8,7.64 l -39.4,-6.53 2.5,39.9 c 23.6,381.99 -231,718.96 -605.4,801.24 -173.7,38.18 -356.6,14.9 -515,-65.49 l -33.5,-17.01 -11.2,35.86 c -121.8,387.87 -443.6,682.91 -839.8,769.99 -611.5,134.38 -1218.3,-253.79 -1352.7,-865.27 -11.6,-53.07 -19.6,-108.09 -23.6,-163.51 l -3.8,-53.86 -45.3,29.48 c -78.2,50.98 -164.3,87.03 -255.8,107.14 -416.1,91.42 -828.9,-172.66 -920.3,-588.67 -10.3,-46.96 -16.2,-95.62 -17.6,-144.64 l -0.6,-21.47 -20.2,-7.47 c -141.3,-52.37 -245,-171.32 -277.2,-318.18 -39.1,-177.59 33.3,-357.96 184.2,-459.51 l 21.9,-14.73 -10.4,-24.25 c -15.6,-36.21 -27.7,-73.76 -36,-111.61 -72.7,-330.8 137.3,-659.07 468.1,-731.76 190.6,-41.89 392.1,10.42 538.7,139.95 z m 874.2,-608.6 c -74.3,0 -148.8,8 -222.1,24.1 -281.5,61.84 -523.6,237.81 -669.9,485.35 -158.7,-124.57 -366.8,-172.88 -564.6,-129.44 -365.1,80.22 -596.8,442.51 -516.6,807.59 7.4,33.49 17.4,66.76 29.9,99.19 -158.2,118.45 -232.4,316.14 -189.6,510.91 35.4,161.15 145.8,292.93 297.4,356.36 2.4,45.86 8.6,91.31 18.3,135.4 47.9,218.13 177.9,404.54 366,524.89 188.2,120.35 411.9,160.23 630,112.29 82.1,-18.03 160.1,-47.9 232.6,-89 4.7,41.04 11.4,81.64 20.1,121.25 142,645.75 782.8,1055.66 1428.5,913.77 406.6,-89.34 738.9,-385.91 875.4,-778.29 163.5,74.03 348.2,93.61 524.2,54.95 196,-43.07 370,-155.19 490,-315.7 110.9,-148.39 169.4,-329.14 166.7,-512.82 92.6,11.01 185.7,6.4 277.4,-13.73 249.1,-54.74 455.4,-216.08 568.9,-444.02 85.4,-2.2 162.2,-8.05 234.1,-17.81 39.2,-5.32 76.9,-13.49 113.3,-21.39 44.9,-9.75 87.4,-18.95 132,-23.13 77.3,-7.22 152.7,-18.67 224.1,-34.06 330.1,-71.05 600.6,-236.72 761.7,-466.49 16.5,-23.61 33,-49.25 48.9,-74.05 49,-76.34 99.7,-155.28 167,-200.88 89.9,-60.78 234.2,-79.03 350.1,-93.7 9.2,-1.17 18.3,-2.31 27,-3.44 48.7,-6.31 100.1,-5.27 154.6,-4.16 77.4,1.57 157.4,3.19 230.5,-17.93 l 67.2,-19.43 -58.8,-37.9 c -126.8,-81.67 -273.4,-131.47 -424,-144.04 -150.7,-12.54 -302.4,12.41 -438.6,72.23 -107.8,47.32 -208.8,115.98 -306.5,182.38 -156.4,106.32 -304.1,206.75 -475.3,225.34 -170.9,18.52 -333.2,-48.15 -505,-118.77 -132.6,-54.5 -269.7,-110.86 -412.6,-125.35 -3,-0.29 -6,-0.55 -9,-0.78 -160.9,-183.58 -390.3,-285.47 -628.4,-285.48 -59.8,-0.01 -120.1,6.42 -180.1,19.6 -97.6,21.45 -189,59.33 -272.1,112.75 -185.4,-329.95 -534.6,-528.54 -904.3,-528.56 -73.6,-0.01 -148,7.87 -222.2,24.17 -196,43.08 -372.4,140.2 -512.8,281.93 -99.2,-193.63 -259.1,-353.16 -454.6,-452.32 -145.6,-73.88 -306.8,-111.78 -468.8,-111.78"
         style="fill:#700308;fill-opacity:1;fill-rule:nonzero;stroke:none"
         transform="matrix(0.13333333,0,0,-0.13333333,0,1886)" />
    </g>
  </g>
</svg>
